<svg width="156" height="156" viewBox="0 0 156 156" fill="none" xmlns="http://www.w3.org/2000/svg">
<path d="M77.979 51.9889C63.6566 51.9889 51.9684 63.6773 51.9684 78C51.9684 92.3227 63.6566 104.011 77.979 104.011C92.3014 104.011 103.99 92.3227 103.99 78C103.99 63.6773 92.3014 51.9889 77.979 51.9889ZM155.991 78C155.991 67.2287 156.089 56.555 155.484 45.8032C154.879 33.3148 152.03 22.2313 142.898 13.0991C133.747 3.94747 122.683 1.11806 110.195 0.513147C99.4236 -0.0917621 88.7501 0.00580408 77.9985 0.00580408C67.2275 0.00580408 56.554 -0.0917621 45.8024 0.513147C33.3142 1.11806 22.2309 3.96698 13.0989 13.0991C3.94739 22.2508 1.11803 33.3148 0.513137 45.8032C-0.0917604 56.5745 0.00580397 67.2482 0.00580397 78C0.00580397 88.7518 -0.0917604 99.445 0.513137 110.197C1.11803 122.685 3.96691 133.769 13.0989 142.901C22.2504 152.053 33.3142 154.882 45.8024 155.487C56.5735 156.092 67.247 155.994 77.9985 155.994C88.7696 155.994 99.4431 156.092 110.195 155.487C122.683 154.882 133.766 152.033 142.898 142.901C152.05 133.749 154.879 122.685 155.484 110.197C156.108 99.445 155.991 88.7713 155.991 78ZM77.979 118.022C55.832 118.022 37.9582 100.147 37.9582 78C37.9582 55.8525 55.832 37.9785 77.979 37.9785C100.126 37.9785 118 55.8525 118 78C118 100.147 100.126 118.022 77.979 118.022ZM119.639 45.6862C114.468 45.6862 110.292 41.5103 110.292 36.3394C110.292 31.1684 114.468 26.9925 119.639 26.9925C124.81 26.9925 128.986 31.1684 128.986 36.3394C128.987 37.5672 128.746 38.7833 128.277 39.918C127.808 41.0527 127.12 42.0837 126.251 42.952C125.383 43.8202 124.352 44.5086 123.218 44.9778C122.083 45.447 120.867 45.6877 119.639 45.6862Z" fill="white"/>
</svg>
