<svg width="156" height="156" viewBox="0 0 156 156" fill="none" xmlns="http://www.w3.org/2000/svg">
<path d="M78.0087 6.70371e-06C34.9087 -0.0178955 0 35.8224 0 80.0588C0 115.04 21.8376 144.775 52.2498 155.696C56.3454 156.752 55.718 153.762 55.718 151.721V137.847C32.0679 140.694 31.1094 124.617 29.5234 121.932C26.3166 116.311 18.7353 114.879 21.001 112.193C26.3863 109.347 31.8762 112.909 38.2375 122.559C42.8386 129.558 51.8141 128.377 56.3629 127.213C57.3563 123.006 59.4825 119.247 62.4105 116.329C37.9064 111.817 27.6934 96.4572 27.6934 78.1969C27.6934 69.3353 30.5342 61.1898 36.1113 54.6197C32.5559 43.7888 36.4424 34.5155 36.9653 33.137C47.0911 32.2061 57.6177 40.5844 58.4368 41.2467C64.1881 39.6534 70.7586 38.812 78.1133 38.812C85.5029 38.812 92.0907 39.6892 97.8943 41.3004C99.8637 39.7608 109.624 32.5642 119.035 33.4414C119.54 34.8198 123.34 43.8784 119.993 54.566C125.64 61.154 128.516 69.3711 128.516 78.2506C128.516 96.5467 118.233 111.925 93.6593 116.364C95.7641 118.491 97.4353 121.026 98.5754 123.824C99.7155 126.621 100.302 129.623 100.299 132.655V152.795C100.439 154.407 100.299 156 102.914 156C133.779 145.312 156 115.362 156 80.0767C156 35.8224 121.074 6.70371e-06 78.0087 6.70371e-06Z" fill="white"/>
</svg>
