<svg width="1091" height="884" viewBox="0 0 1091 884" fill="none" xmlns="http://www.w3.org/2000/svg">
<g filter="url(#filter0_d)">
<g filter="url(#filter1_bd)">
<path d="M529.949 332.339C520.486 311.767 529.484 287.405 550.048 277.925L667.235 223.898C687.798 214.418 712.14 223.409 721.603 243.981L749.241 304.065C758.704 324.637 749.706 348.999 729.142 358.479L611.955 412.506C591.392 421.986 567.05 412.995 557.587 392.424L529.949 332.339Z" fill="white" fill-opacity="0.2"/>
<path d="M530.403 332.13C521.055 311.809 529.944 287.744 550.257 278.379L667.444 224.352C687.757 214.988 711.801 223.869 721.148 244.19L748.787 304.275C758.135 324.595 749.246 348.66 728.933 358.025L611.746 412.052C591.433 421.416 567.389 412.535 558.042 392.214L530.403 332.13Z" stroke="white" stroke-opacity="0.25"/>
</g>
<g filter="url(#filter2_bd)">
<path d="M769.192 266.096C759.729 245.524 768.728 221.162 789.291 211.682L971.877 127.504C992.44 118.024 1016.78 127.015 1026.24 147.587L1064.76 231.314C1074.22 251.885 1065.22 276.247 1044.66 285.728L862.074 369.905C841.51 379.386 817.169 370.395 807.706 349.823L769.192 266.096Z" fill="white" fill-opacity="0.4"/>
<path d="M769.646 265.886C760.298 245.566 769.187 221.501 789.5 212.136L972.086 127.959C992.398 118.594 1016.44 127.475 1025.79 147.796L1064.3 231.523C1073.65 251.844 1064.76 275.909 1044.45 285.274L861.865 369.451C841.552 378.816 817.508 369.934 808.16 349.614L769.646 265.886Z" stroke="white" stroke-opacity="0.25"/>
</g>
<g filter="url(#filter3_bd)">
<path d="M715.598 156.418C707.281 138.338 715.19 116.927 733.262 108.595L924.868 20.2589C942.941 11.9269 964.333 19.8289 972.65 37.9084C980.967 55.988 973.058 77.3987 954.985 85.7307L763.379 174.067C745.307 182.399 723.914 174.497 715.598 156.418Z" fill="white" fill-opacity="0.85"/>
<path d="M716.052 156.208C707.85 138.38 715.649 117.266 733.471 109.05L925.077 20.7131C942.899 12.4968 963.995 20.2891 972.196 38.1178C980.397 55.9464 972.598 77.0601 954.776 85.2764L763.17 173.613C745.348 181.829 724.253 174.037 716.052 156.208Z" stroke="white" stroke-opacity="0.25"/>
</g>
<g filter="url(#filter4_bd)">
<path d="M601.71 489.212C592.247 468.64 601.246 444.278 621.81 434.798L738.997 380.771C759.56 371.291 783.901 380.282 793.364 400.854L831.314 483.354C840.777 503.925 831.778 528.287 811.215 537.768L694.028 591.794C673.464 601.275 649.123 592.284 639.66 571.712L601.71 489.212Z" fill="white" fill-opacity="0.8"/>
<path d="M602.164 489.003C592.817 468.682 601.706 444.617 622.019 435.252L739.206 381.226C759.518 371.861 783.563 380.742 792.91 401.063L830.86 483.563C840.208 503.884 831.319 527.948 811.006 537.313L693.819 591.34C673.506 600.705 649.462 591.823 640.114 571.503L602.164 489.003Z" stroke="white" stroke-opacity="0.25"/>
</g>
<g filter="url(#filter5_bd)">
<path d="M125.227 647.662C115.764 627.091 124.763 602.729 145.326 593.248L286.129 528.334C306.693 518.853 331.034 527.844 340.497 548.416L379.241 632.641C388.704 653.213 379.705 677.575 359.141 687.055L218.338 751.97C197.775 761.45 173.433 752.459 163.97 731.887L125.227 647.662Z" fill="white" fill-opacity="0.35"/>
<path d="M125.681 647.453C116.333 627.132 125.223 603.067 145.535 593.703L286.338 528.788C306.651 519.423 330.695 528.305 340.043 548.625L378.787 632.851C388.134 653.171 379.245 677.236 358.932 686.601L218.129 751.515C197.816 760.88 173.772 751.999 164.425 731.678L125.681 647.453Z" stroke="white" stroke-opacity="0.25"/>
</g>
<g clip-path="url(#clip0)">
<path d="M206.579 720.669L166.614 634.349L308.565 568.627L348.531 654.947L206.579 720.669Z" stroke="black" stroke-width="2"/>
<path d="M308.955 567.249L165.188 633.812L167.895 639.658L311.662 573.096L308.955 567.249Z" fill="#6C63FF"/>
<path d="M171.614 635.784C172.239 635.494 172.521 634.774 172.244 634.176C171.967 633.578 171.236 633.327 170.611 633.617C169.985 633.906 169.703 634.626 169.98 635.224C170.257 635.823 170.989 636.073 171.614 635.784Z" fill="white"/>
<path d="M175.911 633.793C176.536 633.504 176.818 632.784 176.541 632.186C176.264 631.587 175.533 631.337 174.907 631.626C174.282 631.916 174 632.636 174.277 633.234C174.554 633.832 175.286 634.083 175.911 633.793Z" fill="white"/>
<path d="M180.208 631.804C180.833 631.515 181.115 630.795 180.838 630.196C180.561 629.598 179.829 629.348 179.204 629.637C178.579 629.926 178.297 630.646 178.574 631.245C178.851 631.843 179.582 632.094 180.208 631.804Z" fill="white"/>
<path d="M274.823 604.745L230.694 625.177C230.595 625.208 230.488 625.204 230.393 625.165C230.299 625.125 230.224 625.053 230.182 624.963C230.14 624.872 230.134 624.768 230.165 624.67C230.196 624.573 230.262 624.489 230.35 624.433L274.479 604.002C274.579 603.97 274.686 603.974 274.78 604.014C274.874 604.053 274.95 604.125 274.992 604.216C275.034 604.307 275.04 604.411 275.009 604.508C274.978 604.606 274.912 604.69 274.823 604.745Z" fill="#CCCCCC"/>
<path d="M246.139 622.991L218.082 635.981C217.982 636.013 217.875 636.009 217.781 635.969C217.687 635.93 217.612 635.858 217.57 635.767C217.527 635.676 217.521 635.572 217.552 635.475C217.583 635.378 217.649 635.293 217.738 635.238L245.795 622.248C245.895 622.216 246.002 622.22 246.096 622.26C246.19 622.299 246.266 622.371 246.308 622.462C246.35 622.553 246.356 622.657 246.325 622.754C246.294 622.851 246.228 622.936 246.139 622.991Z" fill="#CCCCCC"/>
<path d="M276.751 608.908L248.693 621.898C248.594 621.93 248.487 621.926 248.393 621.886C248.298 621.847 248.223 621.775 248.181 621.684C248.139 621.593 248.133 621.489 248.164 621.392C248.195 621.295 248.261 621.21 248.349 621.155L276.407 608.165C276.506 608.133 276.613 608.137 276.708 608.176C276.802 608.216 276.877 608.288 276.919 608.379C276.961 608.47 276.967 608.573 276.936 608.671C276.905 608.768 276.839 608.853 276.751 608.908L276.751 608.908Z" fill="#CCCCCC"/>
<path d="M248.1 627.048L220.043 640.038C219.943 640.07 219.836 640.065 219.742 640.026C219.648 639.987 219.573 639.915 219.53 639.824C219.488 639.733 219.482 639.629 219.513 639.532C219.544 639.434 219.61 639.35 219.699 639.295L247.756 626.304C247.856 626.273 247.963 626.277 248.057 626.316C248.151 626.356 248.227 626.427 248.269 626.518C248.311 626.609 248.317 626.713 248.286 626.811C248.255 626.908 248.189 626.992 248.1 627.048Z" fill="#CCCCCC"/>
<path d="M250.062 631.105L222.005 644.096C221.905 644.127 221.798 644.123 221.704 644.084C221.61 644.044 221.535 643.972 221.492 643.881C221.45 643.791 221.444 643.687 221.475 643.589C221.506 643.492 221.572 643.408 221.661 643.352L249.718 630.362C249.818 630.33 249.925 630.334 250.019 630.374C250.113 630.413 250.189 630.485 250.231 630.576C250.273 630.667 250.279 630.771 250.248 630.868C250.217 630.966 250.151 631.05 250.062 631.105Z" fill="#CCCCCC"/>
<path d="M260.903 621.12L252.867 624.841C252.768 624.872 252.661 624.868 252.566 624.829C252.472 624.789 252.397 624.718 252.355 624.627C252.313 624.536 252.306 624.432 252.337 624.334C252.368 624.237 252.434 624.153 252.523 624.097L260.559 620.377C260.659 620.345 260.766 620.349 260.86 620.389C260.954 620.428 261.029 620.5 261.071 620.591C261.114 620.682 261.12 620.786 261.089 620.883C261.058 620.98 260.992 621.065 260.903 621.12Z" fill="#CCCCCC"/>
<path d="M262.762 625.136L254.727 628.856C254.627 628.888 254.52 628.884 254.426 628.844C254.331 628.805 254.256 628.733 254.214 628.642C254.172 628.551 254.166 628.447 254.197 628.35C254.228 628.253 254.294 628.168 254.382 628.113L262.418 624.392C262.518 624.361 262.625 624.365 262.719 624.404C262.814 624.444 262.889 624.516 262.931 624.606C262.973 624.697 262.979 624.801 262.948 624.899C262.917 624.996 262.851 625.08 262.762 625.136Z" fill="#CCCCCC"/>
<path d="M276.246 618.893L268.21 622.613C268.11 622.645 268.003 622.641 267.909 622.601C267.815 622.562 267.74 622.49 267.697 622.399C267.655 622.308 267.649 622.204 267.68 622.107C267.711 622.009 267.777 621.925 267.866 621.87L275.902 618.149C276.001 618.117 276.108 618.122 276.203 618.161C276.297 618.2 276.372 618.272 276.414 618.363C276.456 618.454 276.462 618.558 276.432 618.655C276.401 618.753 276.335 618.837 276.246 618.893Z" fill="#CCCCCC"/>
<path d="M224.02 628.267L215.985 631.987C215.885 632.019 215.778 632.015 215.684 631.975C215.589 631.936 215.514 631.864 215.472 631.773C215.43 631.682 215.424 631.578 215.455 631.481C215.486 631.384 215.552 631.299 215.64 631.244L223.676 627.523C223.776 627.491 223.883 627.496 223.977 627.535C224.071 627.574 224.147 627.646 224.189 627.737C224.231 627.828 224.237 627.932 224.206 628.029C224.175 628.127 224.109 628.211 224.02 628.267Z" fill="#CCCCCC"/>
<path d="M265.85 665.831L237.793 678.821C237.693 678.853 237.586 678.849 237.492 678.809C237.398 678.77 237.323 678.698 237.28 678.607C237.238 678.516 237.232 678.412 237.263 678.315C237.294 678.217 237.36 678.133 237.449 678.078L265.506 665.087C265.606 665.056 265.713 665.06 265.807 665.099C265.901 665.139 265.977 665.211 266.019 665.302C266.061 665.392 266.067 665.496 266.036 665.594C266.005 665.691 265.939 665.775 265.85 665.831L265.85 665.831Z" fill="#CCCCCC"/>
<path d="M269.5 674.072L241.443 687.062C241.343 687.094 241.236 687.09 241.142 687.05C241.047 687.011 240.972 686.939 240.93 686.848C240.888 686.757 240.882 686.653 240.913 686.556C240.944 686.459 241.01 686.374 241.098 686.319L269.156 673.329C269.255 673.297 269.362 673.301 269.457 673.341C269.551 673.38 269.626 673.452 269.668 673.543C269.71 673.634 269.716 673.738 269.685 673.835C269.654 673.932 269.588 674.017 269.5 674.072L269.5 674.072Z" fill="#CCCCCC"/>
<path d="M271.461 678.129L243.403 691.119C243.304 691.151 243.197 691.146 243.102 691.107C243.008 691.068 242.933 690.996 242.891 690.905C242.849 690.814 242.843 690.71 242.874 690.613C242.905 690.515 242.971 690.431 243.059 690.376L271.117 677.385C271.216 677.354 271.323 677.358 271.417 677.397C271.512 677.437 271.587 677.508 271.629 677.599C271.671 677.69 271.677 677.794 271.646 677.892C271.615 677.989 271.549 678.073 271.461 678.129L271.461 678.129Z" fill="#CCCCCC"/>
<path d="M281.588 668.565L273.552 672.286C273.452 672.318 273.345 672.313 273.251 672.274C273.157 672.235 273.081 672.163 273.039 672.072C272.997 671.981 272.991 671.877 273.022 671.78C273.053 671.682 273.119 671.598 273.208 671.543L281.243 667.822C281.343 667.79 281.45 667.795 281.544 667.834C281.639 667.873 281.714 667.945 281.756 668.036C281.798 668.127 281.804 668.231 281.773 668.328C281.742 668.426 281.676 668.51 281.588 668.565Z" fill="#CCCCCC"/>
<path d="M283.447 672.579L275.411 676.3C275.312 676.331 275.205 676.327 275.11 676.288C275.016 676.248 274.941 676.177 274.899 676.086C274.857 675.995 274.85 675.891 274.881 675.793C274.912 675.696 274.978 675.612 275.067 675.556L283.103 671.836C283.203 671.804 283.31 671.808 283.404 671.848C283.498 671.887 283.573 671.959 283.615 672.05C283.658 672.141 283.664 672.245 283.633 672.342C283.602 672.439 283.536 672.524 283.447 672.579Z" fill="#CCCCCC"/>
<path d="M295.071 662.322L287.035 666.043C286.936 666.075 286.829 666.07 286.734 666.031C286.64 665.992 286.565 665.92 286.523 665.829C286.481 665.738 286.474 665.634 286.505 665.537C286.536 665.439 286.602 665.355 286.691 665.299L294.727 661.579C294.827 661.547 294.934 661.551 295.028 661.591C295.122 661.63 295.197 661.702 295.239 661.793C295.282 661.884 295.288 661.988 295.257 662.085C295.226 662.183 295.16 662.267 295.071 662.322Z" fill="#CCCCCC"/>
<path d="M298.456 655.699L254.327 676.131C254.228 676.162 254.121 676.158 254.026 676.119C253.932 676.079 253.857 676.008 253.815 675.917C253.773 675.826 253.766 675.722 253.797 675.624C253.828 675.527 253.894 675.443 253.983 675.387L298.112 654.956C298.212 654.924 298.319 654.929 298.413 654.968C298.507 655.007 298.582 655.079 298.625 655.17C298.667 655.261 298.673 655.365 298.642 655.462C298.611 655.56 298.545 655.644 298.456 655.699Z" fill="#CCCCCC"/>
<path d="M247.654 679.221L239.618 682.941C239.519 682.973 239.412 682.969 239.317 682.929C239.223 682.89 239.148 682.818 239.106 682.727C239.064 682.636 239.057 682.532 239.088 682.435C239.119 682.338 239.185 682.253 239.274 682.198L247.31 678.477C247.41 678.446 247.517 678.45 247.611 678.489C247.705 678.529 247.78 678.6 247.822 678.691C247.865 678.782 247.871 678.886 247.84 678.984C247.809 679.081 247.743 679.165 247.654 679.221Z" fill="#CCCCCC"/>
<path d="M246.106 640.958L239.979 656.303L255.643 661.557L257.008 658.075L245.116 654.003L249.742 642.204L246.106 640.958Z" fill="#E6E6E6"/>
<path d="M262.177 633.517L277.842 638.772L271.714 654.116L268.176 652.904L272.764 641.202L260.774 637.096L262.177 633.517Z" fill="#E6E6E6"/>
<path d="M246.106 640.958L239.979 656.303L255.643 661.557L257.008 658.075L245.116 654.003L249.742 642.204L246.106 640.958Z" fill="#6C63FF"/>
<path d="M262.177 633.517L277.842 638.772L271.714 654.116L268.176 652.904L272.764 641.202L260.774 637.096L262.177 633.517Z" fill="#6C63FF"/>
</g>
<g filter="url(#filter6_bd)">
<path d="M201.127 812.662C192.148 793.143 200.686 770.027 220.198 761.032L365.03 694.259C384.542 685.264 407.638 693.795 416.616 713.314C425.595 732.833 417.057 755.949 397.545 764.944L252.713 831.717C233.201 840.712 210.105 832.181 201.127 812.662Z" fill="white" fill-opacity="0.55"/>
<path d="M201.581 812.452C192.717 793.184 201.146 770.366 220.407 761.486L365.239 694.714C384.5 685.834 407.299 694.255 416.162 713.524C425.026 732.792 416.597 755.61 397.336 764.49L252.504 831.262C233.243 840.142 210.444 831.721 201.581 812.452Z" stroke="white" stroke-opacity="0.25"/>
</g>
<g filter="url(#filter7_bd)">
<path d="M357.59 509.62C349.851 492.796 357.21 472.872 374.028 465.119L493.881 409.863C510.698 402.109 530.605 409.463 538.344 426.287C546.083 443.111 538.724 463.034 521.906 470.788L402.053 526.044C385.236 533.797 365.329 526.444 357.59 509.62Z" fill="white" fill-opacity="0.55"/>
<path d="M358.044 509.41C350.42 492.837 357.67 473.211 374.237 465.573L494.09 410.317C510.656 402.679 530.266 409.923 537.89 426.496C545.514 443.069 538.264 462.696 521.697 470.334L401.844 525.589C385.278 533.227 365.668 525.984 358.044 509.41Z" stroke="white" stroke-opacity="0.25"/>
</g>
<g filter="url(#filter8_bd)">
<path d="M403.592 595.02C394.129 574.448 403.128 550.086 423.692 540.606L529.979 491.604C550.542 482.124 574.883 491.115 584.346 511.686L637.652 627.568C647.115 648.139 638.116 672.501 617.552 681.981L511.265 730.983C490.702 740.463 466.36 731.472 456.897 710.901L403.592 595.02Z" fill="white" fill-opacity="0.25"/>
<path d="M404.046 594.81C394.699 574.49 403.588 550.425 423.9 541.06L530.188 492.058C550.5 482.693 574.545 491.575 583.892 511.896L637.198 627.777C646.545 648.098 637.656 672.162 617.343 681.527L511.056 730.529C490.743 739.894 466.699 731.012 457.352 710.691L404.046 594.81Z" stroke="white" stroke-opacity="0.25"/>
</g>
<g clip-path="url(#clip1)">
<path d="M565.025 651.166L543.911 604.08L504.702 621.662L525.816 668.748L565.025 651.166Z" fill="#2F2E41"/>
<path d="M550.002 599.622L497.321 623.245L505.703 641.936L558.383 618.313L550.002 599.622Z" fill="#3F3D56"/>
<path d="M559.351 620.47L506.67 644.093L515.051 662.783L567.732 639.16L559.351 620.47Z" fill="#3F3D56"/>
<path d="M568.699 641.316L516.019 664.939L524.4 683.63L577.081 660.007L568.699 641.316Z" fill="#3F3D56"/>
<path d="M553.556 607.547L500.875 631.17L502.164 634.045L554.845 610.422L553.556 607.547Z" fill="#6C63FF"/>
<path d="M562.904 628.395L510.224 652.018L511.513 654.893L564.194 631.27L562.904 628.395Z" fill="#6C63FF"/>
<path d="M572.253 649.241L519.572 672.864L520.862 675.74L573.542 652.117L572.253 649.241Z" fill="#6C63FF"/>
<path d="M541.44 607.995C542.106 607.696 542.43 606.971 542.163 606.375C541.896 605.78 541.139 605.539 540.473 605.838C539.807 606.137 539.483 606.862 539.75 607.457C540.017 608.053 540.774 608.293 541.44 607.995Z" fill="#6C63FF"/>
<path d="M545.663 606.101C546.329 605.802 546.653 605.077 546.386 604.482C546.119 603.886 545.362 603.646 544.696 603.944C544.029 604.243 543.706 604.968 543.973 605.564C544.24 606.159 544.996 606.4 545.663 606.101Z" fill="#6C63FF"/>
<path d="M549.885 604.207C550.552 603.909 550.875 603.184 550.608 602.588C550.341 601.993 549.585 601.752 548.918 602.051C548.252 602.35 547.928 603.075 548.195 603.67C548.462 604.266 549.219 604.506 549.885 604.207Z" fill="#6C63FF"/>
<path d="M550.628 628.483C551.294 628.184 551.618 627.459 551.35 626.864C551.083 626.268 550.327 626.027 549.661 626.326C548.994 626.625 548.671 627.35 548.938 627.945C549.205 628.541 549.961 628.782 550.628 628.483Z" fill="#6C63FF"/>
<path d="M554.85 626.589C555.517 626.29 555.84 625.565 555.573 624.97C555.306 624.374 554.549 624.134 553.883 624.433C553.217 624.731 552.893 625.456 553.16 626.052C553.427 626.647 554.184 626.888 554.85 626.589Z" fill="#6C63FF"/>
<path d="M559.072 624.696C559.738 624.397 560.062 623.672 559.795 623.076C559.528 622.481 558.771 622.24 558.105 622.539C557.439 622.838 557.115 623.563 557.382 624.158C557.649 624.754 558.406 624.994 559.072 624.696Z" fill="#6C63FF"/>
<path d="M559.814 648.97C560.48 648.671 560.804 647.946 560.537 647.351C560.27 646.755 559.513 646.515 558.847 646.814C558.181 647.112 557.857 647.837 558.124 648.433C558.391 649.028 559.148 649.269 559.814 648.97Z" fill="#6C63FF"/>
<path d="M564.037 647.077C564.703 646.778 565.027 646.053 564.76 645.457C564.493 644.862 563.736 644.621 563.07 644.92C562.403 645.219 562.08 645.944 562.347 646.539C562.614 647.135 563.37 647.375 564.037 647.077Z" fill="#6C63FF"/>
<path d="M568.259 645.183C568.926 644.884 569.249 644.159 568.982 643.564C568.715 642.968 567.959 642.728 567.292 643.026C566.626 643.325 566.302 644.05 566.569 644.646C566.837 645.241 567.593 645.482 568.259 645.183Z" fill="#6C63FF"/>
<path d="M639.935 631.606L461.384 711.672L461.545 712.031L640.096 631.965L639.935 631.606Z" fill="#3F3D56"/>
<path d="M457.483 616.313L456.28 616.852L456.28 616.853C455.603 617.156 455.07 617.684 454.792 618.308C454.514 618.93 454.511 619.591 454.763 620.152C454.763 620.152 454.763 620.152 454.763 620.152L469.751 653.578C469.751 653.578 469.751 653.578 469.752 653.578C470.003 654.139 470.499 654.577 471.148 654.783C471.799 654.99 472.547 654.943 473.225 654.64L487.758 648.123C487.758 648.123 487.758 648.123 487.758 648.123C488.434 647.819 488.967 647.291 489.245 646.667C489.523 646.046 489.525 645.385 489.274 644.824L457.483 616.313ZM457.483 616.313C457.512 616.379 457.545 616.443 457.582 616.505C457.744 616.778 457.978 617 458.257 617.155C458.536 617.309 458.851 617.39 459.174 617.398C459.496 617.405 459.818 617.339 460.115 617.207L460.115 617.206L468.401 613.491L468.401 613.491C468.697 613.358 468.961 613.161 469.17 612.915C469.379 612.67 469.527 612.38 469.598 612.069C469.669 611.758 469.658 611.436 469.562 611.133C469.54 611.064 469.514 610.997 469.484 610.931L470.813 610.336C470.813 610.336 470.813 610.336 470.813 610.336C471.49 610.032 472.238 609.986 472.889 610.193C473.538 610.399 474.033 610.837 474.285 611.398C474.285 611.398 474.285 611.398 474.285 611.398L489.274 644.824L457.483 616.313Z" stroke="black"/>
<path d="M476.683 633.821L469.3 637.132L469.469 637.509L476.852 634.198L476.683 633.821Z" fill="#E6E6E6"/>
<path d="M481.338 633.397L469.914 638.52L470.083 638.897L481.507 633.774L481.338 633.397Z" fill="#6C63FF"/>
<path d="M479.464 635.804L470.499 639.824L470.668 640.201L479.634 636.181L479.464 635.804Z" fill="#E6E6E6"/>
<path d="M476.358 638.764L471.084 641.129L471.253 641.506L476.527 639.141L476.358 638.764Z" fill="#E6E6E6"/>
<path d="M479.58 638.886L471.669 642.434L471.838 642.811L479.749 639.263L479.58 638.886Z" fill="#E6E6E6"/>
<path d="M466.747 638.146L465.903 638.524L466.242 639.279L467.085 638.9L466.747 638.146Z" fill="#E6E6E6"/>
<path d="M467.332 639.451L466.488 639.829L466.826 640.583L467.67 640.205L467.332 639.451Z" fill="#6C63FF"/>
<path d="M467.917 640.755L467.073 641.134L467.411 641.888L468.255 641.51L467.917 640.755Z" fill="#E6E6E6"/>
<path d="M468.502 642.06L467.658 642.438L467.996 643.193L468.84 642.814L468.502 642.06Z" fill="#E6E6E6"/>
<path d="M469.087 643.364L468.243 643.742L468.581 644.496L469.425 644.118L469.087 643.364Z" fill="#E6E6E6"/>
<path d="M471.25 620.712L463.811 624.048L466.792 630.697L474.231 627.361L471.25 620.712Z" fill="#E6E6E6"/>
<path d="M481.782 583L469.501 555.611L518.028 533.85L530.31 561.239L481.782 583Z" stroke="black"/>
<path d="M494.499 556.244L484.661 560.655L484.886 561.158L494.724 556.746L494.499 556.244Z" fill="#E6E6E6"/>
<path d="M500.7 555.679L485.478 562.505L485.703 563.007L500.925 556.181L500.7 555.679Z" fill="#6C63FF"/>
<path d="M498.204 558.886L486.258 564.243L486.483 564.746L498.429 559.389L498.204 558.886Z" fill="#E6E6E6"/>
<path d="M494.064 562.83L487.037 565.981L487.262 566.484L494.289 563.333L494.064 562.83Z" fill="#E6E6E6"/>
<path d="M498.357 562.992L487.816 567.719L488.042 568.221L498.582 563.495L498.357 562.992Z" fill="#E6E6E6"/>
<path d="M481.258 562.008L480.134 562.512L480.584 563.517L481.709 563.012L481.258 562.008Z" fill="#E6E6E6"/>
<path d="M482.038 563.746L480.914 564.25L481.365 565.255L482.489 564.751L482.038 563.746Z" fill="#6C63FF"/>
<path d="M482.818 565.484L481.693 565.988L482.144 566.993L483.268 566.489L482.818 565.484Z" fill="#E6E6E6"/>
<path d="M483.597 567.222L482.473 567.727L482.923 568.731L484.048 568.227L483.597 567.222Z" fill="#E6E6E6"/>
<path d="M484.376 568.96L483.252 569.464L483.703 570.469L484.827 569.965L484.376 568.96Z" fill="#E6E6E6"/>
<path d="M515.873 545.861L505.808 550.375L509.842 559.371L519.907 554.858L515.873 545.861Z" fill="#E6E6E6"/>
<path d="M518.247 533.174L468.807 555.344L469.648 557.221L519.089 535.051L518.247 533.174Z" fill="#6C63FF"/>
<path d="M470.967 555.981C471.199 555.876 471.313 555.623 471.219 555.415C471.126 555.207 470.861 555.123 470.629 555.227C470.396 555.331 470.283 555.585 470.376 555.793C470.469 556.001 470.734 556.085 470.967 555.981Z" fill="white"/>
<path d="M472.444 555.319C472.677 555.214 472.79 554.961 472.697 554.753C472.603 554.544 472.339 554.46 472.106 554.565C471.873 554.669 471.76 554.923 471.854 555.131C471.947 555.339 472.211 555.423 472.444 555.319Z" fill="white"/>
<path d="M473.923 554.655C474.156 554.551 474.269 554.298 474.175 554.09C474.082 553.881 473.818 553.797 473.585 553.902C473.352 554.006 473.239 554.26 473.332 554.468C473.425 554.676 473.69 554.76 473.923 554.655Z" fill="white"/>
<mask id="path-88-inside-1" fill="white">
<path fill-rule="evenodd" clip-rule="evenodd" d="M575.133 571.301L563.069 576.71L565.567 582.281C563.86 585.016 563.451 588.334 564.77 591.274C566.088 594.213 568.838 596.115 572.015 596.66L574.513 602.23L586.577 596.82L584.079 591.25C585.786 588.516 586.195 585.197 584.877 582.257C583.559 579.317 580.808 577.415 577.631 576.871L575.133 571.301Z"/>
</mask>
<path d="M563.069 576.71L562.66 575.798L561.747 576.207L562.157 577.12L563.069 576.71ZM575.133 571.301L576.046 570.891L575.637 569.979L574.724 570.388L575.133 571.301ZM565.567 582.281L566.415 582.811L566.698 582.359L566.48 581.872L565.567 582.281ZM572.015 596.66L572.927 596.251L572.709 595.764L572.184 595.674L572.015 596.66ZM574.513 602.23L573.6 602.639L574.009 603.552L574.922 603.143L574.513 602.23ZM586.577 596.82L586.986 597.733L587.899 597.324L587.489 596.411L586.577 596.82ZM584.079 591.25L583.231 590.721L582.949 591.173L583.167 591.659L584.079 591.25ZM577.631 576.871L576.719 577.28L576.937 577.767L577.462 577.857L577.631 576.871ZM563.478 577.623L575.543 572.213L574.724 570.388L562.66 575.798L563.478 577.623ZM566.48 581.872L563.982 576.301L562.157 577.12L564.655 582.69L566.48 581.872ZM564.719 581.752C562.86 584.73 562.385 588.4 563.857 591.683L565.682 590.865C564.518 588.268 564.861 585.301 566.415 582.811L564.719 581.752ZM563.857 591.683C565.33 594.966 568.386 597.052 571.846 597.645L572.184 595.674C569.29 595.178 566.846 593.461 565.682 590.865L563.857 591.683ZM575.425 601.821L572.927 596.251L571.102 597.069L573.6 602.639L575.425 601.821ZM586.168 595.908L574.103 601.318L574.922 603.143L586.986 597.733L586.168 595.908ZM583.167 591.659L585.664 597.23L587.489 596.411L584.992 590.841L583.167 591.659ZM584.927 591.78C586.787 588.801 587.262 585.132 585.789 581.848L583.964 582.666C585.129 585.263 584.785 588.23 583.231 590.721L584.927 591.78ZM585.789 581.848C584.317 578.565 581.261 576.478 577.8 575.886L577.462 577.857C580.356 578.353 582.8 580.07 583.964 582.666L585.789 581.848ZM574.221 571.71L576.719 577.28L578.544 576.462L576.046 570.891L574.221 571.71Z" fill="black" mask="url(#path-88-inside-1)"/>
<path d="M577.475 583.27L571.394 585.997L571.533 586.308L577.615 583.581L577.475 583.27Z" fill="#E2E2E2"/>
<path d="M581.31 582.92L571.899 587.14L572.039 587.45L581.449 583.23L581.31 582.92Z" fill="#6C63FF"/>
<path d="M579.767 584.902L572.382 588.214L572.521 588.524L579.906 585.213L579.767 584.902Z" fill="#E2E2E2"/>
<path d="M577.207 587.341L572.863 589.289L573.003 589.6L577.347 587.652L577.207 587.341Z" fill="#E2E2E2"/>
<path d="M579.861 587.441L573.345 590.363L573.484 590.674L580 587.752L579.861 587.441Z" fill="#E2E2E2"/>
<path d="M569.291 586.833L568.596 587.145L568.874 587.766L569.569 587.454L569.291 586.833Z" fill="#E2E2E2"/>
<path d="M569.772 587.907L569.077 588.219L569.356 588.84L570.051 588.528L569.772 587.907Z" fill="#6C63FF"/>
<path d="M570.255 588.981L569.56 589.293L569.838 589.914L570.533 589.603L570.255 588.981Z" fill="#E2E2E2"/>
<path d="M570.736 590.056L570.041 590.368L570.32 590.989L571.015 590.678L570.736 590.056Z" fill="#E2E2E2"/>
<path d="M571.218 591.131L570.522 591.442L570.801 592.064L571.496 591.752L571.218 591.131Z" fill="#E2E2E2"/>
<path d="M463.871 614.455C463.896 614.437 463.914 614.409 463.922 614.376C463.929 614.344 463.925 614.309 463.91 614.279C463.455 613.344 463.047 612.384 462.687 611.404C456.969 595.815 462.017 578.292 474.698 569.752C474.726 569.733 474.746 569.703 474.752 569.667C474.759 569.632 474.752 569.595 474.734 569.564C474.716 569.533 474.687 569.51 474.654 569.502C474.622 569.493 474.588 569.498 474.56 569.517C468.343 573.721 463.74 580.199 461.534 587.85C459.327 595.502 459.652 603.857 462.454 611.497C462.817 612.486 463.229 613.455 463.689 614.4C463.697 614.416 463.707 614.43 463.72 614.442C463.733 614.454 463.748 614.463 463.763 614.469C463.779 614.475 463.796 614.477 463.812 614.476C463.829 614.475 463.845 614.47 463.859 614.462C463.863 614.46 463.867 614.458 463.871 614.455Z" fill="#E6E6E6"/>
<path d="M474.952 570.184L474.952 570.184C475.099 570.084 475.196 569.927 475.228 569.757C475.26 569.588 475.228 569.419 475.147 569.283C475.067 569.147 474.939 569.044 474.784 569.003C474.627 568.961 474.454 568.986 474.307 569.085L474.306 569.086L474.306 569.086C467.985 573.36 463.31 579.943 461.07 587.711C458.83 595.479 459.162 603.952 462.001 611.693L462.001 611.693C462.37 612.699 462.789 613.684 463.256 614.644L463.256 614.644C463.291 614.715 463.338 614.779 463.395 614.833C463.453 614.886 463.52 614.928 463.594 614.955L463.594 614.955C463.669 614.982 463.75 614.995 463.832 614.989M474.952 570.184L463.859 614.462L464.073 614.918C463.997 614.96 463.915 614.983 463.832 614.989M474.952 570.184C462.49 578.575 457.497 595.823 463.14 611.208M474.952 570.184L464.343 614.034C463.895 613.115 463.494 612.171 463.14 611.208M463.832 614.989L463.812 614.476L463.832 614.989C463.832 614.989 463.832 614.989 463.832 614.989ZM463.14 611.208L462.91 611.308L463.14 611.208C463.14 611.208 463.14 611.208 463.14 611.208ZM463.476 614.52C463.476 614.52 463.476 614.52 463.476 614.52C463.476 614.52 463.476 614.52 463.476 614.52ZM463.477 614.523C463.477 614.523 463.477 614.522 463.476 614.522C463.477 614.522 463.477 614.523 463.477 614.523L463.477 614.523Z" stroke="#E6E6E6" stroke-opacity="0.5"/>
<mask id="path-102-outside-2" maskUnits="userSpaceOnUse" x="525.632" y="541.794" width="45.5098" height="39.9963" fill="black">
<rect fill="white" x="525.632" y="541.794" width="45.5098" height="39.9963"/>
<path d="M569.093 572.469C569.061 572.476 569.027 572.471 568.997 572.455C568.967 572.439 568.943 572.413 568.93 572.382C568.53 571.421 568.078 570.48 567.577 569.562C559.598 554.955 542.575 547.204 527.104 551.146C527.07 551.155 527.033 551.149 527.001 551.131C526.969 551.113 526.945 551.083 526.934 551.049C526.923 551.014 526.926 550.978 526.942 550.948C526.958 550.917 526.987 550.895 527.021 550.887C534.618 548.965 542.832 549.764 550.267 553.147C557.702 556.53 563.901 562.289 567.812 569.447C568.318 570.374 568.774 571.325 569.178 572.295C569.185 572.311 569.189 572.329 569.189 572.346C569.189 572.364 569.186 572.381 569.179 572.397C569.173 572.413 569.163 572.427 569.15 572.438C569.138 572.45 569.123 572.459 569.107 572.465C569.102 572.466 569.098 572.468 569.093 572.469Z"/>
</mask>
<path d="M569.093 572.469C569.061 572.476 569.027 572.471 568.997 572.455C568.967 572.439 568.943 572.413 568.93 572.382C568.53 571.421 568.078 570.48 567.577 569.562C559.598 554.955 542.575 547.204 527.104 551.146C527.07 551.155 527.033 551.149 527.001 551.131C526.969 551.113 526.945 551.083 526.934 551.049C526.923 551.014 526.926 550.978 526.942 550.948C526.958 550.917 526.987 550.895 527.021 550.887C534.618 548.965 542.832 549.764 550.267 553.147C557.702 556.53 563.901 562.289 567.812 569.447C568.318 570.374 568.774 571.325 569.178 572.295C569.185 572.311 569.189 572.329 569.189 572.346C569.189 572.364 569.186 572.381 569.179 572.397C569.173 572.413 569.163 572.427 569.15 572.438C569.138 572.45 569.123 572.459 569.107 572.465C569.102 572.466 569.098 572.468 569.093 572.469Z" fill="#E6E6E6"/>
<path d="M569.093 572.469L569.379 573.427L569.381 573.426L569.093 572.469ZM568.93 572.382L569.869 572.057L569.869 572.057L568.93 572.382ZM567.577 569.562L568.469 569.139L568.469 569.139L567.577 569.562ZM527.104 551.146L527.411 552.099L527.411 552.099L527.104 551.146ZM527.021 550.887L526.715 549.933L526.713 549.934L527.021 550.887ZM567.812 569.447L568.704 569.024L568.704 569.024L567.812 569.447ZM569.178 572.295L570.117 571.97L570.117 571.969L569.178 572.295ZM569.107 572.465L568.715 571.537L568.714 571.538L569.107 572.465ZM568.808 571.51C569.024 571.46 569.252 571.494 569.448 571.598L568.547 573.312C568.802 573.448 569.099 573.492 569.379 573.427L568.808 571.51ZM569.448 571.598C569.642 571.701 569.79 571.866 569.869 572.057L567.991 572.707C568.097 572.96 568.292 573.177 568.547 573.312L569.448 571.598ZM569.869 572.057C569.455 571.063 568.988 570.089 568.469 569.139L566.685 569.985C567.169 570.871 567.605 571.78 567.992 572.707L569.869 572.057ZM568.469 569.139C560.267 554.124 542.75 546.128 526.797 550.193L527.411 552.099C542.399 548.28 558.929 555.786 566.685 569.985L568.469 569.139ZM526.797 550.193C527.028 550.134 527.275 550.172 527.481 550.29L526.521 551.972C526.791 552.126 527.111 552.175 527.411 552.099L526.797 550.193ZM527.481 550.29C527.686 550.408 527.835 550.594 527.902 550.804L525.966 551.294C526.055 551.573 526.252 551.818 526.521 551.972L527.481 550.29ZM527.902 550.804C527.97 551.014 527.954 551.241 527.85 551.436L526.035 550.459C525.898 550.715 525.876 551.015 525.966 551.294L527.902 550.804ZM527.85 551.436C527.745 551.632 527.559 551.781 527.328 551.84L526.713 549.934C526.414 550.01 526.172 550.202 526.035 550.459L527.85 551.436ZM527.326 551.84C534.693 549.977 542.66 550.751 549.877 554.034L550.657 552.26C543.003 548.778 534.544 547.954 526.715 549.933L527.326 551.84ZM549.877 554.034C557.095 557.318 563.118 562.912 566.92 569.87L568.704 569.024C564.684 561.667 558.31 555.742 550.657 552.26L549.877 554.034ZM566.92 569.87C567.409 570.765 567.85 571.683 568.24 572.62L570.117 571.969C569.699 570.966 569.227 569.983 568.704 569.024L566.92 569.87ZM568.239 572.619C568.197 572.517 568.175 572.409 568.174 572.301L570.204 572.392C570.203 572.248 570.174 572.105 570.117 571.97L568.239 572.619ZM568.174 572.301C568.173 572.192 568.194 572.084 568.236 571.984L570.123 572.81C570.178 572.678 570.206 572.536 570.204 572.392L568.174 572.301ZM568.236 571.984C568.278 571.883 568.342 571.791 568.424 571.714L569.877 573.163C569.984 573.063 570.067 572.942 570.123 572.81L568.236 571.984ZM568.424 571.714C568.506 571.636 568.605 571.576 568.715 571.537L569.499 573.392C569.642 573.342 569.77 573.264 569.877 573.163L568.424 571.714ZM568.714 571.538C568.744 571.527 568.774 571.518 568.805 571.511L569.381 573.426C569.421 573.417 569.461 573.405 569.5 573.392L568.714 571.538Z" fill="#E6E6E6" fill-opacity="0.5" mask="url(#path-102-outside-2)"/>
<mask id="path-104-outside-3" maskUnits="userSpaceOnUse" x="554.519" y="597.475" width="40.3037" height="41.4396" fill="black">
<rect fill="white" x="554.519" y="597.475" width="40.3037" height="41.4396"/>
<path d="M579.675 599.755C579.653 599.771 579.637 599.795 579.629 599.822C579.622 599.849 579.625 599.878 579.636 599.902C579.997 600.661 580.317 601.442 580.594 602.242C585.006 614.962 580.109 629.681 568.944 637.23C568.92 637.246 568.902 637.272 568.895 637.302C568.888 637.331 568.893 637.362 568.908 637.387C568.922 637.412 568.946 637.429 568.974 637.436C569.002 637.442 569.031 637.436 569.056 637.419C574.53 633.704 578.69 628.163 580.83 621.735C582.97 615.308 582.959 608.39 580.797 602.156C580.517 601.349 580.194 600.56 579.83 599.794C579.824 599.781 579.815 599.77 579.805 599.76C579.794 599.751 579.782 599.744 579.768 599.739C579.755 599.735 579.741 599.734 579.726 599.735C579.712 599.737 579.698 599.741 579.686 599.749C579.682 599.75 579.679 599.753 579.675 599.755Z"/>
</mask>
<path d="M579.675 599.755C579.653 599.771 579.637 599.795 579.629 599.822C579.622 599.849 579.625 599.878 579.636 599.902C579.997 600.661 580.317 601.442 580.594 602.242C585.006 614.962 580.109 629.681 568.944 637.23C568.92 637.246 568.902 637.272 568.895 637.302C568.888 637.331 568.893 637.362 568.908 637.387C568.922 637.412 568.946 637.429 568.974 637.436C569.002 637.442 569.031 637.436 569.056 637.419C574.53 633.704 578.69 628.163 580.83 621.735C582.97 615.308 582.959 608.39 580.797 602.156C580.517 601.349 580.194 600.56 579.83 599.794C579.824 599.781 579.815 599.77 579.805 599.76C579.794 599.751 579.782 599.744 579.768 599.739C579.755 599.735 579.741 599.734 579.726 599.735C579.712 599.737 579.698 599.741 579.686 599.749C579.682 599.75 579.679 599.753 579.675 599.755Z" fill="#E6E6E6"/>
<path d="M579.675 599.755L579.15 598.904L579.152 598.903L579.675 599.755ZM579.636 599.902L580.505 599.422L580.506 599.422L579.636 599.902ZM580.594 602.242L581.506 601.866L581.506 601.867L580.594 602.242ZM568.944 637.23L568.436 636.367L568.436 636.367L568.944 637.23ZM569.056 637.419L569.565 638.281L569.564 638.282L569.056 637.419ZM580.797 602.156L581.71 601.781L581.71 601.781L580.797 602.156ZM579.83 599.794L580.699 599.313L580.699 599.314L579.83 599.794ZM579.686 599.749L580.122 600.656L580.121 600.656L579.686 599.749ZM580.201 600.606C580.375 600.482 580.505 600.296 580.563 600.078L578.695 599.566C578.768 599.294 578.931 599.059 579.15 598.904L580.201 600.606ZM580.563 600.078C580.621 599.86 580.603 599.626 580.505 599.422L578.767 600.383C578.646 600.13 578.623 599.838 578.695 599.566L580.563 600.078ZM580.506 599.422C580.882 600.215 581.217 601.031 581.506 601.866L579.682 602.617C579.417 601.854 579.111 601.108 578.767 600.383L580.506 599.422ZM581.506 601.867C586.08 615.051 581.002 630.284 569.452 638.092L568.436 636.367C579.217 629.078 583.932 614.873 579.682 602.617L581.506 601.867ZM569.453 638.092C569.643 637.963 569.782 637.761 569.837 637.525L567.953 637.078C568.022 636.783 568.197 636.529 568.436 636.367L569.453 638.092ZM569.837 637.525C569.893 637.288 569.858 637.037 569.735 636.828L568.08 637.946C567.928 637.687 567.884 637.374 567.953 637.078L569.837 637.525ZM569.735 636.828C569.612 636.619 569.415 636.477 569.192 636.428L568.756 638.443C568.477 638.382 568.232 638.205 568.08 637.946L569.735 636.828ZM569.192 636.428C568.969 636.38 568.738 636.428 568.548 636.556L569.564 638.282C569.325 638.444 569.035 638.504 568.756 638.443L569.192 636.428ZM568.546 636.557C573.834 632.969 577.85 627.618 579.916 621.414L581.745 622.056C579.53 628.707 575.226 634.439 569.565 638.281L568.546 636.557ZM579.916 621.414C581.981 615.212 581.968 608.54 579.885 602.532L581.71 601.781C583.949 608.24 583.96 615.404 581.745 622.056L579.916 621.414ZM579.885 602.532C579.617 601.76 579.309 601.007 578.961 600.275L580.699 599.314C581.08 600.114 581.417 600.938 581.71 601.781L579.885 602.532ZM578.961 600.275C579.013 600.383 579.084 600.479 579.172 600.557L580.437 598.964C580.546 599.06 580.635 599.179 580.699 599.313L578.961 600.275ZM579.172 600.557C579.26 600.634 579.361 600.691 579.469 600.725L580.067 598.754C580.202 598.796 580.328 598.867 580.437 598.964L579.172 600.557ZM579.469 600.725C579.578 600.76 579.691 600.77 579.803 600.758L579.65 598.713C579.79 598.697 579.931 598.711 580.067 598.754L579.469 600.725ZM579.803 600.758C579.914 600.746 580.023 600.711 580.122 600.656L579.25 598.841C579.374 598.772 579.51 598.728 579.65 598.713L579.803 600.758ZM580.121 600.656C580.148 600.641 580.174 600.625 580.199 600.607L579.152 598.903C579.184 598.88 579.217 598.86 579.251 598.841L580.121 600.656Z" fill="#E6E6E6" fill-opacity="0.5" mask="url(#path-104-outside-3)"/>
<path d="M481.941 652.495C481.967 652.489 481.994 652.49 482.018 652.498C482.041 652.507 482.058 652.521 482.067 652.539C482.327 653.099 482.63 653.645 482.974 654.174C488.457 662.593 501.682 666.413 514.417 663.248C514.445 663.241 514.475 663.243 514.499 663.252C514.524 663.261 514.541 663.278 514.548 663.298C514.554 663.318 514.55 663.341 514.535 663.36C514.52 663.379 514.495 663.394 514.467 663.401C508.214 664.946 501.642 664.88 495.865 663.213C490.089 661.546 485.465 658.381 482.777 654.256C482.429 653.721 482.123 653.17 481.861 652.605C481.856 652.595 481.855 652.584 481.856 652.574C481.857 652.563 481.86 652.553 481.867 652.543C481.873 652.533 481.882 652.524 481.893 652.516C481.904 652.509 481.916 652.503 481.93 652.498C481.933 652.497 481.937 652.496 481.941 652.495Z" fill="#E6E6E6"/>
<path d="M482.167 652.037L482.167 652.037C482.297 652.082 482.447 652.183 482.528 652.358C482.777 652.895 483.068 653.419 483.4 653.928C488.713 662.086 501.656 665.905 514.266 662.771L514.267 662.771C514.383 662.742 514.524 662.742 514.663 662.796M482.167 652.037L514.663 662.796M482.167 652.037C482.037 651.991 481.908 651.991 481.798 652.016L481.797 652.016M482.167 652.037L481.797 652.016M514.663 662.796C514.805 662.85 514.965 662.971 515.031 663.172C515.097 663.374 515.036 663.555 514.945 663.671C514.856 663.784 514.735 663.849 514.618 663.878L514.618 663.878L514.618 663.878C508.286 665.443 501.619 665.379 495.745 663.684C489.871 661.989 485.124 658.757 482.352 654.502L482.352 654.502C481.991 653.947 481.673 653.374 481.4 652.786L481.4 652.786C481.357 652.693 481.341 652.595 481.35 652.502C481.359 652.409 481.391 652.33 481.433 652.266M514.663 662.796L481.748 652.03M481.433 652.266L481.867 652.543M481.433 652.266C481.433 652.266 481.432 652.266 481.432 652.266L481.867 652.543M481.433 652.266C481.474 652.202 481.525 652.152 481.578 652.114C481.631 652.076 481.689 652.048 481.748 652.03M481.867 652.543C481.86 652.553 481.857 652.563 481.856 652.574C481.855 652.584 481.856 652.595 481.861 652.605M481.867 652.543L481.861 652.605M481.748 652.03C481.764 652.025 481.781 652.02 481.797 652.016M481.748 652.03L481.797 652.016M481.861 652.605C481.863 652.609 481.865 652.613 481.867 652.618C481.867 652.618 481.867 652.618 481.867 652.618C481.889 652.665 481.911 652.712 481.933 652.758L481.868 652.96C481.784 652.931 481.67 652.859 481.606 652.721L481.606 652.72L481.861 652.605ZM482.322 652.423L482.059 652.527L482.322 652.423ZM482.322 652.423C482.322 652.423 482.322 652.423 482.322 652.423L482.059 652.527M482.322 652.423L482.059 652.527M482.059 652.527C482.049 652.514 482.035 652.505 482.018 652.498C481.994 652.49 481.967 652.489 481.941 652.495L482.059 652.527ZM481.868 652.96L481.934 652.758C481.969 652.833 482.006 652.907 482.043 652.981C481.993 652.987 481.933 652.983 481.868 652.96Z" stroke="#E6E6E6" stroke-opacity="0.5"/>
</g>
<g clip-path="url(#clip2)">
<path d="M512.027 310.078C513.73 309.294 514.583 307.515 513.934 306.104C513.284 304.694 511.377 304.186 509.675 304.97C507.972 305.754 507.118 307.533 507.768 308.944C508.418 310.354 510.324 310.862 512.027 310.078Z" fill="#E6E6E6"/>
<path d="M521.275 305.819C522.978 305.035 523.831 303.256 523.182 301.846C522.532 300.435 520.625 299.927 518.923 300.711C517.22 301.495 516.366 303.274 517.016 304.685C517.666 306.096 519.572 306.603 521.275 305.819Z" fill="#E6E6E6"/>
<path d="M530.523 301.561C532.226 300.777 533.079 298.997 532.43 297.587C531.78 296.176 529.873 295.668 528.171 296.452C526.468 297.236 525.614 299.016 526.264 300.426C526.914 301.837 528.821 302.345 530.523 301.561Z" fill="#E6E6E6"/>
<path d="M539.771 297.302C541.474 296.518 542.327 294.739 541.678 293.328C541.028 291.917 539.121 291.41 537.419 292.194C535.716 292.978 534.863 294.757 535.512 296.167C536.162 297.578 538.069 298.086 539.771 297.302Z" fill="#E6E6E6"/>
<path d="M549.02 293.043C550.723 292.259 551.576 290.48 550.927 289.069C550.277 287.659 548.37 287.151 546.668 287.935C544.965 288.719 544.112 290.498 544.761 291.909C545.411 293.319 547.318 293.827 549.02 293.043Z" fill="#E6E6E6"/>
<path d="M558.269 288.783C559.972 287.999 560.825 286.22 560.176 284.809C559.526 283.399 557.619 282.891 555.917 283.675C554.214 284.459 553.361 286.238 554.01 287.649C554.66 289.059 556.567 289.567 558.269 288.783Z" fill="#E6E6E6"/>
<path d="M567.517 284.524C569.22 283.74 570.073 281.961 569.424 280.551C568.774 279.14 566.867 278.632 565.165 279.416C563.462 280.2 562.609 281.979 563.258 283.39C563.908 284.801 565.815 285.309 567.517 284.524Z" fill="#E6E6E6"/>
<path d="M574.898 281.8L505.159 313.915C504.827 314.068 504.457 314.105 504.132 314.019C503.807 313.932 503.553 313.729 503.426 313.454L501.519 309.312C501.392 309.036 501.403 308.711 501.548 308.408C501.694 308.105 501.962 307.848 502.295 307.695L572.033 275.579C572.366 275.426 572.735 275.389 573.06 275.475C573.385 275.562 573.639 275.765 573.767 276.041L575.674 280.182C575.8 280.458 575.79 280.783 575.644 281.086C575.499 281.39 575.23 281.646 574.898 281.8ZM502.486 308.11C502.287 308.203 502.126 308.356 502.038 308.538C501.951 308.72 501.945 308.915 502.021 309.081L503.928 313.223C504.004 313.388 504.157 313.51 504.352 313.562C504.547 313.614 504.768 313.591 504.968 313.5L574.707 281.384C574.906 281.292 575.067 281.138 575.154 280.956C575.242 280.774 575.248 280.579 575.172 280.414L573.265 276.272C573.188 276.107 573.036 275.985 572.841 275.933C572.646 275.881 572.424 275.903 572.225 275.995L502.486 308.11Z" fill="#E6E6E6"/>
<path d="M509.371 283.782C509.562 283.694 509.774 283.672 509.961 283.722C510.148 283.772 510.294 283.889 510.367 284.047L516.326 296.988C516.399 297.146 516.393 297.333 516.309 297.507C516.226 297.681 516.072 297.829 515.881 297.917L500.58 304.963C500.389 305.051 500.176 305.072 499.99 305.023C499.803 304.973 499.657 304.856 499.584 304.698L493.624 291.757C493.552 291.599 493.558 291.412 493.641 291.238C493.725 291.063 493.879 290.916 494.07 290.828L509.371 283.782L509.371 283.782ZM509.096 283.184L493.795 290.231C493.413 290.407 493.104 290.701 492.937 291.05C492.77 291.398 492.758 291.772 492.904 292.089L498.863 305.03C499.009 305.347 499.301 305.581 499.674 305.68C500.048 305.779 500.472 305.736 500.855 305.56L516.156 298.514C516.538 298.338 516.847 298.043 517.014 297.695C517.181 297.346 517.193 296.973 517.047 296.656L511.088 283.715C510.942 283.398 510.65 283.164 510.277 283.065C509.903 282.965 509.478 283.008 509.096 283.184L509.096 283.184Z" fill="#E6E6E6"/>
<path d="M508.551 288.282L498.343 292.983C498.295 293.005 498.245 293.019 498.194 293.025C498.143 293.03 498.093 293.026 498.046 293.014C498 293.002 497.958 292.981 497.923 292.953C497.888 292.925 497.861 292.891 497.843 292.851C497.824 292.812 497.816 292.769 497.817 292.724C497.819 292.679 497.83 292.634 497.851 292.591C497.872 292.547 497.902 292.507 497.939 292.472C497.976 292.437 498.02 292.407 498.068 292.386L508.276 287.685C508.324 287.662 508.374 287.648 508.425 287.643C508.476 287.638 508.526 287.641 508.573 287.653C508.619 287.666 508.661 287.686 508.696 287.714C508.731 287.742 508.758 287.777 508.776 287.816C508.795 287.855 508.803 287.899 508.802 287.944C508.8 287.988 508.789 288.034 508.768 288.077C508.747 288.12 508.717 288.161 508.68 288.196C508.643 288.231 508.599 288.26 508.551 288.282Z" fill="#6C63FF"/>
<path d="M509.525 290.397L499.316 295.098C499.269 295.12 499.218 295.134 499.168 295.14C499.117 295.145 499.067 295.142 499.02 295.129C498.974 295.117 498.932 295.096 498.897 295.069C498.862 295.041 498.834 295.006 498.816 294.967C498.798 294.927 498.79 294.884 498.791 294.839C498.793 294.794 498.804 294.749 498.825 294.706C498.846 294.663 498.876 294.622 498.913 294.587C498.95 294.552 498.994 294.523 499.041 294.501L509.25 289.8C509.297 289.778 509.348 289.763 509.399 289.758C509.45 289.753 509.5 289.756 509.546 289.769C509.593 289.781 509.635 289.801 509.67 289.829C509.705 289.857 509.732 289.892 509.75 289.931C509.768 289.971 509.777 290.014 509.775 290.059C509.774 290.104 509.762 290.149 509.741 290.192C509.72 290.235 509.69 290.276 509.653 290.311C509.616 290.346 509.573 290.375 509.525 290.397Z" fill="#6C63FF"/>
<path d="M510.499 292.511L500.29 297.212C500.243 297.235 500.192 297.249 500.141 297.254C500.09 297.259 500.04 297.256 499.994 297.244C499.947 297.231 499.905 297.211 499.87 297.183C499.835 297.155 499.808 297.12 499.79 297.081C499.772 297.041 499.763 296.998 499.765 296.953C499.766 296.909 499.778 296.863 499.799 296.82C499.82 296.777 499.849 296.736 499.887 296.701C499.924 296.666 499.967 296.637 500.015 296.615L510.224 291.914C510.271 291.892 510.322 291.878 510.372 291.872C510.423 291.867 510.473 291.871 510.52 291.883C510.566 291.895 510.608 291.916 510.643 291.944C510.678 291.972 510.706 292.006 510.724 292.046C510.742 292.085 510.75 292.128 510.749 292.173C510.747 292.218 510.736 292.263 510.715 292.306C510.694 292.35 510.664 292.39 510.627 292.425C510.59 292.46 510.546 292.49 510.499 292.511Z" fill="#6C63FF"/>
<path d="M511.472 294.625L501.264 299.327C501.216 299.349 501.166 299.363 501.115 299.368C501.064 299.374 501.014 299.37 500.967 299.358C500.921 299.346 500.879 299.325 500.844 299.297C500.809 299.269 500.782 299.234 500.763 299.195C500.745 299.156 500.737 299.112 500.738 299.068C500.74 299.023 500.751 298.978 500.772 298.934C500.793 298.891 500.823 298.851 500.86 298.816C500.897 298.78 500.941 298.751 500.989 298.729L511.197 294.028C511.245 294.006 511.295 293.992 511.346 293.987C511.397 293.981 511.447 293.985 511.494 293.997C511.54 294.009 511.582 294.03 511.617 294.058C511.652 294.086 511.679 294.12 511.697 294.16C511.716 294.199 511.724 294.243 511.723 294.287C511.721 294.332 511.709 294.377 511.689 294.421C511.668 294.464 511.638 294.504 511.601 294.539C511.564 294.575 511.52 294.604 511.472 294.625Z" fill="#6C63FF"/>
<path d="M512.446 296.74L502.237 301.441C502.141 301.485 502.035 301.496 501.942 301.471C501.848 301.446 501.776 301.388 501.739 301.308C501.703 301.229 501.706 301.136 501.747 301.049C501.789 300.961 501.866 300.888 501.962 300.844L512.171 296.143C512.266 296.099 512.372 296.088 512.466 296.113C512.559 296.138 512.632 296.196 512.669 296.275C512.705 296.354 512.702 296.448 512.66 296.535C512.618 296.622 512.541 296.696 512.446 296.74Z" fill="#6C63FF"/>
<path d="M561.63 259.715C561.821 259.627 562.033 259.606 562.22 259.656C562.407 259.705 562.553 259.822 562.626 259.98L568.585 272.921C568.658 273.08 568.652 273.267 568.568 273.441C568.485 273.615 568.33 273.762 568.139 273.85L552.838 280.897C552.647 280.985 552.435 281.006 552.248 280.956C552.062 280.907 551.916 280.79 551.843 280.632L545.883 267.691C545.81 267.532 545.817 267.345 545.9 267.171C545.984 266.997 546.138 266.85 546.329 266.761L561.63 259.715L561.63 259.715ZM561.355 259.118L546.054 266.164C545.672 266.34 545.363 266.635 545.196 266.984C545.028 267.332 545.016 267.706 545.162 268.023L551.122 280.963C551.268 281.28 551.56 281.514 551.933 281.614C552.307 281.713 552.731 281.67 553.114 281.494L568.414 274.448C568.797 274.272 569.105 273.977 569.273 273.628C569.44 273.28 569.452 272.906 569.306 272.589L563.346 259.648C563.201 259.332 562.909 259.098 562.535 258.998C562.162 258.899 561.737 258.942 561.355 259.118L561.355 259.118Z" fill="#E6E6E6"/>
<path d="M560.81 264.216L550.602 268.917C550.554 268.94 550.504 268.954 550.453 268.959C550.402 268.964 550.352 268.961 550.305 268.949C550.259 268.936 550.217 268.916 550.182 268.888C550.147 268.86 550.12 268.825 550.101 268.786C550.083 268.747 550.075 268.703 550.076 268.658C550.078 268.614 550.089 268.568 550.11 268.525C550.131 268.482 550.161 268.442 550.198 268.406C550.235 268.371 550.279 268.342 550.326 268.32L560.535 263.619C560.631 263.576 560.736 263.565 560.829 263.59C560.922 263.616 560.995 263.674 561.031 263.753C561.067 263.832 561.064 263.925 561.023 264.011C560.982 264.098 560.905 264.172 560.81 264.216L560.81 264.216Z" fill="#6C63FF"/>
<path d="M561.784 266.331L551.575 271.032C551.528 271.054 551.477 271.068 551.426 271.073C551.375 271.079 551.325 271.075 551.279 271.063C551.232 271.051 551.19 271.03 551.155 271.002C551.12 270.974 551.093 270.94 551.075 270.9C551.057 270.861 551.048 270.817 551.05 270.773C551.051 270.728 551.063 270.683 551.084 270.639C551.105 270.596 551.135 270.556 551.172 270.521C551.209 270.485 551.252 270.456 551.3 270.435L561.509 265.733C561.604 265.69 561.71 265.68 561.803 265.705C561.896 265.73 561.968 265.788 562.004 265.867C562.041 265.946 562.038 266.039 561.997 266.126C561.955 266.213 561.879 266.286 561.784 266.331L561.784 266.331Z" fill="#6C63FF"/>
<path d="M562.757 268.445L552.549 273.146C552.501 273.168 552.451 273.182 552.4 273.188C552.349 273.193 552.299 273.189 552.253 273.177C552.206 273.165 552.164 273.144 552.129 273.116C552.094 273.088 552.067 273.054 552.049 273.014C552.031 272.975 552.022 272.932 552.023 272.887C552.025 272.842 552.037 272.797 552.057 272.754C552.078 272.71 552.108 272.67 552.145 272.635C552.182 272.6 552.226 272.57 552.274 272.549L562.482 267.848C562.578 267.804 562.684 267.794 562.776 267.819C562.869 267.844 562.942 267.902 562.978 267.981C563.014 268.06 563.012 268.153 562.97 268.24C562.929 268.327 562.852 268.4 562.757 268.445L562.757 268.445Z" fill="#6C63FF"/>
<path d="M563.731 270.559L553.522 275.26C553.475 275.282 553.424 275.297 553.374 275.302C553.323 275.307 553.273 275.304 553.226 275.291C553.18 275.279 553.138 275.259 553.103 275.231C553.068 275.203 553.04 275.168 553.022 275.129C553.004 275.089 552.996 275.046 552.997 275.001C552.999 274.957 553.01 274.911 553.031 274.868C553.052 274.825 553.082 274.784 553.119 274.749C553.156 274.714 553.2 274.685 553.247 274.663L563.456 269.962C563.551 269.918 563.657 269.908 563.75 269.933C563.843 269.958 563.915 270.017 563.952 270.095C563.988 270.174 563.985 270.267 563.944 270.354C563.903 270.441 563.826 270.515 563.731 270.559L563.731 270.559Z" fill="#6C63FF"/>
<path d="M564.704 272.674L554.496 277.376C554.4 277.42 554.294 277.43 554.201 277.405C554.107 277.381 554.034 277.322 553.998 277.243C553.961 277.164 553.964 277.07 554.006 276.983C554.048 276.896 554.125 276.822 554.221 276.778L564.429 272.077C564.525 272.033 564.631 272.022 564.725 272.047C564.818 272.072 564.891 272.131 564.927 272.21C564.964 272.289 564.961 272.382 564.919 272.47C564.877 272.557 564.8 272.63 564.704 272.674L564.704 272.674Z" fill="#6C63FF"/>
<path d="M625.094 260.649C625.285 260.561 625.497 260.54 625.684 260.589C625.87 260.639 626.016 260.756 626.09 260.914L632.049 273.855C632.122 274.013 632.116 274.2 632.032 274.374C631.948 274.549 631.794 274.696 631.603 274.784L616.302 281.83C616.111 281.918 615.899 281.94 615.712 281.89C615.526 281.84 615.38 281.723 615.307 281.565L609.347 268.624C609.274 268.466 609.28 268.279 609.364 268.105C609.448 267.931 609.602 267.783 609.793 267.695L625.094 260.649L625.094 260.649ZM624.819 260.052L609.518 267.098C609.135 267.274 608.827 267.569 608.66 267.917C608.492 268.266 608.48 268.639 608.626 268.956L614.586 281.897C614.732 282.214 615.023 282.448 615.397 282.547C615.77 282.647 616.195 282.604 616.577 282.428L631.878 275.381C632.261 275.205 632.569 274.911 632.737 274.562C632.904 274.214 632.916 273.84 632.77 273.523L626.81 260.582C626.664 260.265 626.373 260.031 625.999 259.932C625.626 259.832 625.201 259.875 624.819 260.052L624.819 260.052Z" fill="white"/>
<path d="M624.274 265.149L614.065 269.85C614.018 269.872 613.967 269.886 613.917 269.892C613.866 269.897 613.816 269.894 613.769 269.881C613.723 269.869 613.681 269.848 613.646 269.82C613.611 269.793 613.583 269.758 613.565 269.719C613.547 269.679 613.539 269.636 613.54 269.591C613.542 269.546 613.553 269.501 613.574 269.458C613.595 269.414 613.625 269.374 613.662 269.339C613.699 269.304 613.743 269.275 613.79 269.253L623.999 264.552C624.094 264.508 624.2 264.498 624.293 264.523C624.386 264.548 624.458 264.606 624.495 264.685C624.531 264.764 624.528 264.857 624.487 264.944C624.446 265.031 624.369 265.105 624.274 265.149Z" fill="#6C63FF"/>
<path d="M625.248 267.264L615.04 271.965C614.944 272.009 614.838 272.02 614.745 271.995C614.651 271.97 614.578 271.912 614.542 271.833C614.505 271.754 614.508 271.66 614.55 271.573C614.592 271.486 614.669 271.412 614.765 271.368L624.973 266.667C625.069 266.623 625.175 266.612 625.268 266.637C625.362 266.662 625.435 266.72 625.471 266.8C625.508 266.879 625.505 266.972 625.463 267.059C625.421 267.146 625.344 267.22 625.248 267.264Z" fill="#6C63FF"/>
<path d="M626.222 269.378L616.013 274.079C615.966 274.101 615.915 274.115 615.864 274.12C615.814 274.126 615.764 274.122 615.717 274.11C615.671 274.098 615.629 274.077 615.594 274.049C615.559 274.021 615.532 273.986 615.513 273.947C615.495 273.908 615.487 273.864 615.488 273.82C615.49 273.775 615.501 273.73 615.522 273.686C615.543 273.643 615.573 273.603 615.61 273.568C615.647 273.533 615.691 273.503 615.738 273.482L625.947 268.78C626.042 268.737 626.148 268.727 626.241 268.752C626.334 268.777 626.406 268.835 626.443 268.914C626.479 268.993 626.476 269.086 626.435 269.173C626.393 269.26 626.317 269.333 626.222 269.378Z" fill="#6C63FF"/>
<path d="M627.195 271.493L616.986 276.194C616.939 276.216 616.888 276.23 616.837 276.236C616.787 276.241 616.737 276.237 616.69 276.225C616.644 276.213 616.602 276.192 616.567 276.164C616.532 276.136 616.504 276.102 616.486 276.062C616.468 276.023 616.459 275.98 616.461 275.935C616.462 275.89 616.474 275.845 616.495 275.802C616.516 275.758 616.546 275.718 616.583 275.683C616.62 275.648 616.664 275.618 616.711 275.597L626.92 270.895C627.015 270.852 627.121 270.842 627.214 270.867C627.307 270.892 627.379 270.95 627.416 271.029C627.452 271.108 627.449 271.201 627.408 271.288C627.366 271.375 627.29 271.448 627.195 271.493Z" fill="#6C63FF"/>
<path d="M628.17 273.608L617.961 278.309C617.913 278.331 617.863 278.345 617.812 278.351C617.761 278.356 617.711 278.353 617.665 278.34C617.618 278.328 617.576 278.307 617.541 278.279C617.506 278.252 617.479 278.217 617.461 278.178C617.443 278.138 617.434 278.095 617.436 278.05C617.437 278.005 617.449 277.96 617.47 277.917C617.49 277.873 617.52 277.833 617.557 277.798C617.595 277.763 617.638 277.734 617.686 277.712L627.895 273.011C627.99 272.967 628.096 272.957 628.188 272.982C628.281 273.007 628.354 273.065 628.39 273.144C628.427 273.223 628.424 273.316 628.382 273.403C628.341 273.49 628.264 273.564 628.17 273.608Z" fill="#6C63FF"/>
<path d="M542.486 286.389L526.784 293.62C526.359 293.815 525.888 293.863 525.473 293.752C525.058 293.642 524.734 293.383 524.572 293.031L520.285 283.723C520.123 283.371 520.137 282.955 520.323 282.568C520.508 282.181 520.851 281.854 521.275 281.658L536.977 274.427C537.402 274.232 537.873 274.184 538.288 274.295C538.703 274.405 539.027 274.665 539.19 275.017L543.477 284.325C543.638 284.677 543.624 285.092 543.439 285.479C543.253 285.866 542.91 286.194 542.486 286.389ZM521.55 282.255C521.317 282.363 521.129 282.543 521.026 282.756C520.924 282.969 520.917 283.197 521.006 283.391L525.292 292.699C525.382 292.892 525.56 293.035 525.788 293.096C526.016 293.157 526.276 293.13 526.509 293.023L542.211 285.792C542.444 285.685 542.633 285.504 542.735 285.292C542.837 285.079 542.845 284.85 542.756 284.657L538.469 275.349C538.38 275.155 538.201 275.012 537.973 274.952C537.745 274.891 537.486 274.917 537.252 275.024L521.55 282.255Z" fill="#E6E6E6"/>
<path d="M536.149 279.856L525.94 284.557C525.844 284.601 525.739 284.611 525.646 284.586C525.553 284.561 525.48 284.502 525.444 284.424C525.408 284.345 525.411 284.252 525.452 284.165C525.493 284.078 525.57 284.004 525.665 283.96L535.873 279.259C535.921 279.237 535.971 279.223 536.022 279.217C536.073 279.212 536.123 279.215 536.17 279.228C536.216 279.24 536.258 279.261 536.293 279.288C536.328 279.316 536.355 279.351 536.374 279.39C536.392 279.43 536.4 279.473 536.399 279.518C536.397 279.563 536.386 279.608 536.365 279.651C536.344 279.694 536.314 279.735 536.277 279.77C536.24 279.805 536.196 279.834 536.149 279.856Z" fill="#6C63FF"/>
<path d="M537.122 281.97L526.913 286.671C526.818 286.715 526.712 286.725 526.619 286.7C526.527 286.675 526.454 286.617 526.418 286.538C526.381 286.459 526.384 286.366 526.426 286.279C526.467 286.192 526.543 286.119 526.638 286.074L536.847 281.373C536.895 281.351 536.945 281.337 536.996 281.331C537.047 281.326 537.097 281.33 537.143 281.342C537.19 281.354 537.232 281.375 537.267 281.403C537.302 281.431 537.329 281.465 537.347 281.505C537.365 281.544 537.374 281.587 537.372 281.632C537.371 281.677 537.359 281.722 537.338 281.765C537.318 281.809 537.288 281.849 537.251 281.884C537.213 281.919 537.17 281.949 537.122 281.97Z" fill="#6C63FF"/>
<path d="M538.097 284.085L527.888 288.787C527.793 288.83 527.687 288.84 527.594 288.815C527.501 288.79 527.429 288.732 527.392 288.653C527.356 288.574 527.359 288.481 527.4 288.394C527.442 288.307 527.518 288.234 527.613 288.19L537.822 283.488C537.869 283.466 537.92 283.452 537.971 283.447C538.021 283.441 538.072 283.445 538.118 283.457C538.164 283.469 538.206 283.49 538.241 283.518C538.276 283.546 538.304 283.581 538.322 283.62C538.34 283.659 538.349 283.703 538.347 283.747C538.346 283.792 538.334 283.837 538.313 283.881C538.292 283.924 538.262 283.964 538.225 283.999C538.188 284.035 538.144 284.064 538.097 284.085Z" fill="#6C63FF"/>
<path d="M596.962 267.554L580.213 270.875C579.76 270.965 579.311 270.895 578.964 270.681C578.618 270.467 578.402 270.127 578.364 269.734L577.376 259.353C577.339 258.961 577.484 258.549 577.778 258.208C578.071 257.867 578.491 257.625 578.944 257.534L595.693 254.213C596.146 254.124 596.595 254.194 596.941 254.407C597.288 254.621 597.504 254.962 597.542 255.354L598.53 265.735C598.566 266.128 598.422 266.54 598.128 266.881C597.834 267.222 597.415 267.464 596.962 267.554ZM579.007 258.2C578.758 258.25 578.527 258.383 578.366 258.571C578.204 258.758 578.125 258.985 578.145 259.201L579.133 269.582C579.154 269.798 579.272 269.985 579.463 270.102C579.654 270.22 579.901 270.259 580.15 270.209L596.898 266.888C597.148 266.838 597.378 266.705 597.54 266.518C597.702 266.33 597.781 266.104 597.761 265.888L596.773 255.507C596.752 255.291 596.633 255.104 596.443 254.986C596.252 254.868 596.005 254.83 595.756 254.879L579.007 258.2Z" fill="#E6E6E6"/>
<path d="M593.204 259.439L582.315 261.599C582.213 261.619 582.112 261.603 582.034 261.555C581.956 261.506 581.908 261.43 581.9 261.342C581.891 261.253 581.924 261.161 581.99 261.084C582.056 261.007 582.15 260.953 582.252 260.933L593.141 258.773C593.243 258.753 593.344 258.769 593.422 258.817C593.5 258.865 593.549 258.942 593.557 259.03C593.566 259.118 593.533 259.211 593.467 259.288C593.401 259.364 593.306 259.419 593.204 259.439L593.204 259.439Z" fill="#6C63FF"/>
<path d="M593.429 261.797L582.539 263.957C582.489 263.967 582.438 263.968 582.39 263.961C582.342 263.953 582.297 263.937 582.258 263.913C582.22 263.889 582.188 263.858 582.165 263.822C582.141 263.785 582.127 263.744 582.123 263.7C582.119 263.656 582.125 263.611 582.14 263.567C582.156 263.523 582.181 263.48 582.213 263.442C582.246 263.404 582.286 263.371 582.331 263.345C582.376 263.319 582.426 263.301 582.476 263.291L593.366 261.131C593.467 261.111 593.568 261.127 593.646 261.175C593.724 261.223 593.772 261.3 593.781 261.388C593.789 261.476 593.757 261.569 593.691 261.646C593.625 261.722 593.531 261.777 593.429 261.797Z" fill="#6C63FF"/>
<path d="M593.653 264.155L582.763 266.314C582.661 266.334 582.56 266.319 582.483 266.27C582.405 266.222 582.356 266.146 582.348 266.057C582.339 265.969 582.372 265.877 582.438 265.8C582.504 265.723 582.598 265.669 582.7 265.648L593.589 263.489C593.691 263.469 593.792 263.484 593.87 263.533C593.949 263.581 593.997 263.657 594.005 263.746C594.014 263.834 593.981 263.927 593.915 264.003C593.849 264.08 593.755 264.135 593.653 264.155Z" fill="#6C63FF"/>
<path d="M738.269 315.684L580.105 388.521L580.364 389.083L738.528 316.246L738.269 315.684Z" fill="#0B0000"/>
<path d="M671.534 345.351L645.814 357.196L642.362 347.404L666.338 336.363L671.534 345.351Z" fill="#E6E6E6"/>
<path d="M672.779 343.464L644.008 356.714L645.006 358.881L673.777 345.631L672.779 343.464Z" fill="#E6E6E6"/>
<path d="M578.077 305.336L676.379 260.066C676.575 259.976 676.781 259.92 676.979 259.9C677.178 259.88 677.357 259.896 677.507 259.936C677.656 259.976 677.768 260.036 677.846 260.099C677.923 260.161 677.972 260.228 678.002 260.294L700.244 308.591L599.436 355.015L577.194 306.717C577.138 306.596 577.111 306.387 577.245 306.109C577.383 305.82 577.67 305.523 578.077 305.336Z" stroke="black" stroke-width="3"/>
<path d="M598.7 357.005L602.442 365.131C602.573 365.416 602.771 365.666 603.023 365.869C603.276 366.071 603.579 366.221 603.914 366.311C604.25 366.4 604.612 366.427 604.979 366.39C605.347 366.352 605.712 366.252 606.056 366.094L704.358 320.824C705.051 320.505 705.612 319.97 705.915 319.338C706.218 318.705 706.24 318.027 705.975 317.453L702.233 309.326L598.7 357.005Z" fill="#E6E6E6"/>
<path d="M653.903 340.338C655.348 339.673 656.072 338.164 655.521 336.967C654.97 335.77 653.352 335.339 651.908 336.004C650.463 336.67 649.739 338.179 650.29 339.376C650.841 340.573 652.459 341.004 653.903 340.338Z" fill="#3F3D56"/>
<path d="M585.896 307.774C586.17 307.647 586.307 307.361 586.203 307.134C586.098 306.907 585.791 306.825 585.517 306.951C585.243 307.077 585.105 307.364 585.21 307.591C585.314 307.818 585.622 307.9 585.896 307.774Z" fill="white"/>
<path d="M587.779 306.906C588.054 306.78 588.191 306.494 588.086 306.267C587.982 306.039 587.675 305.958 587.401 306.084C587.127 306.21 586.989 306.497 587.094 306.724C587.198 306.951 587.505 307.033 587.779 306.906Z" fill="white"/>
<path d="M589.663 306.039C589.937 305.913 590.075 305.626 589.97 305.399C589.866 305.172 589.559 305.09 589.284 305.217C589.01 305.343 588.873 305.629 588.977 305.857C589.082 306.084 589.389 306.165 589.663 306.039Z" fill="white"/>
<path d="M594.265 311.825C594.182 311.863 594.116 311.927 594.079 312.002C594.043 312.078 594.041 312.159 594.072 312.227L600.085 325.283C600.116 325.351 600.179 325.402 600.26 325.423C600.341 325.445 600.433 325.436 600.515 325.398L618.714 317.017C618.796 316.979 618.863 316.915 618.899 316.84C618.936 316.764 618.938 316.684 618.907 316.615L612.894 303.559C612.863 303.491 612.8 303.44 612.719 303.419C612.638 303.397 612.546 303.406 612.464 303.444L594.265 311.825Z" fill="#E6E6E6"/>
<path d="M623.504 298.412C623.422 298.45 623.355 298.514 623.319 298.589C623.283 298.665 623.28 298.745 623.311 298.814L629.304 311.828C629.336 311.896 629.399 311.947 629.48 311.968C629.561 311.99 629.653 311.981 629.735 311.943L647.876 303.588C647.959 303.55 648.025 303.487 648.061 303.411C648.097 303.336 648.1 303.255 648.069 303.187L642.076 290.173C642.044 290.104 641.981 290.054 641.9 290.032C641.819 290.011 641.728 290.02 641.645 290.058L623.504 298.412Z" fill="#E6E6E6"/>
<path d="M652.356 284.959C652.273 284.997 652.206 285.061 652.17 285.136C652.134 285.212 652.131 285.292 652.163 285.361L658.219 298.511C658.25 298.58 658.313 298.63 658.394 298.652C658.475 298.673 658.567 298.664 658.649 298.626L676.979 290.185C677.061 290.147 677.128 290.083 677.164 290.008C677.2 289.932 677.203 289.852 677.171 289.783L671.115 276.633C671.084 276.564 671.021 276.514 670.94 276.492C670.859 276.471 670.768 276.48 670.685 276.518L652.356 284.959Z" fill="#E6E6E6"/>
<path d="M603.824 331.708C603.653 331.787 603.516 331.918 603.441 332.074C603.367 332.23 603.361 332.396 603.427 332.538C603.492 332.679 603.622 332.784 603.789 332.828C603.955 332.873 604.145 332.854 604.316 332.776L621.426 324.896C621.597 324.817 621.734 324.685 621.809 324.53C621.884 324.374 621.889 324.207 621.824 324.066C621.759 323.924 621.628 323.82 621.462 323.775C621.295 323.731 621.105 323.75 620.934 323.828L603.824 331.708Z" fill="#E6E6E6"/>
<path d="M604.994 334.248C604.823 334.327 604.686 334.458 604.611 334.614C604.537 334.77 604.531 334.937 604.597 335.078C604.662 335.219 604.792 335.324 604.959 335.369C605.125 335.413 605.315 335.394 605.486 335.316L613.19 331.768C613.36 331.689 613.498 331.557 613.573 331.402C613.647 331.246 613.652 331.079 613.587 330.938C613.522 330.796 613.392 330.692 613.225 330.647C613.058 330.603 612.869 330.622 612.698 330.7L604.994 334.248Z" fill="#6C63FF"/>
<path d="M633.359 318.106C633.189 318.185 633.051 318.317 632.976 318.472C632.902 318.628 632.897 318.795 632.962 318.936C633.027 319.078 633.157 319.182 633.324 319.227C633.491 319.271 633.68 319.252 633.851 319.174L650.961 311.295C651.132 311.216 651.27 311.084 651.344 310.928C651.419 310.773 651.424 310.606 651.359 310.464C651.294 310.323 651.163 310.218 650.997 310.174C650.83 310.129 650.64 310.148 650.47 310.227L633.359 318.106Z" fill="#E6E6E6"/>
<path d="M634.528 320.647C634.358 320.726 634.22 320.858 634.145 321.013C634.071 321.169 634.066 321.336 634.131 321.477C634.196 321.619 634.326 321.723 634.493 321.768C634.66 321.813 634.849 321.794 635.02 321.715L642.724 318.167C642.895 318.088 643.032 317.957 643.107 317.801C643.181 317.645 643.187 317.479 643.121 317.337C643.056 317.196 642.926 317.091 642.759 317.047C642.593 317.002 642.403 317.021 642.232 317.099L634.528 320.647Z" fill="#6C63FF"/>
<path d="M662.155 304.845C661.984 304.924 661.847 305.056 661.772 305.212C661.698 305.367 661.692 305.534 661.758 305.676C661.823 305.817 661.953 305.922 662.12 305.966C662.286 306.011 662.476 305.992 662.647 305.913L679.757 298.034C679.928 297.955 680.066 297.823 680.14 297.667C680.215 297.512 680.22 297.345 680.155 297.203C680.09 297.062 679.959 296.958 679.793 296.913C679.626 296.868 679.436 296.887 679.265 296.966L662.155 304.845Z" fill="#E6E6E6"/>
<path d="M602.616 329.084C602.445 329.163 602.308 329.294 602.233 329.45C602.159 329.606 602.153 329.772 602.219 329.914C602.284 330.055 602.414 330.16 602.581 330.204C602.747 330.249 602.937 330.23 603.108 330.152L620.218 322.272C620.389 322.193 620.526 322.061 620.601 321.906C620.676 321.75 620.681 321.583 620.616 321.442C620.55 321.3 620.42 321.196 620.254 321.151C620.087 321.107 619.897 321.126 619.726 321.204L602.616 329.084Z" fill="#E6E6E6"/>
<path d="M632.151 315.483C631.981 315.562 631.843 315.694 631.768 315.849C631.694 316.005 631.689 316.172 631.754 316.313C631.819 316.455 631.949 316.559 632.116 316.604C632.283 316.648 632.472 316.629 632.643 316.551L649.753 308.671C649.924 308.593 650.062 308.461 650.136 308.305C650.211 308.15 650.216 307.983 650.151 307.841C650.086 307.7 649.955 307.595 649.789 307.551C649.622 307.506 649.432 307.525 649.261 307.603L632.151 315.483Z" fill="#E6E6E6"/>
<path d="M660.946 302.222C660.775 302.301 660.638 302.433 660.563 302.589C660.489 302.744 660.484 302.911 660.549 303.053C660.614 303.194 660.744 303.298 660.911 303.343C661.077 303.388 661.267 303.369 661.438 303.29L678.548 295.411C678.719 295.332 678.857 295.2 678.931 295.044C679.006 294.889 679.011 294.722 678.946 294.58C678.881 294.439 678.75 294.334 678.584 294.29C678.417 294.245 678.227 294.264 678.056 294.343L660.946 302.222Z" fill="#E6E6E6"/>
<path d="M663.324 307.385C663.153 307.464 663.016 307.596 662.941 307.752C662.867 307.907 662.861 308.074 662.927 308.216C662.992 308.357 663.122 308.462 663.289 308.506C663.455 308.551 663.645 308.532 663.816 308.453L671.52 304.906C671.69 304.827 671.828 304.695 671.903 304.539C671.977 304.384 671.982 304.217 671.917 304.075C671.852 303.934 671.722 303.829 671.555 303.785C671.388 303.74 671.199 303.759 671.028 303.838L663.324 307.385Z" fill="#6C63FF"/>
</g>
</g>
<g clip-path="url(#clip3)">
<path d="M713.575 475.72C713.575 475.72 711.549 471.321 709.962 467.877C708.934 465.644 706.21 464.713 703.864 465.794L680.828 476.404C678.482 477.484 675.758 476.554 674.729 474.321C673.701 472.088 674.764 469.413 677.11 468.332L717.585 449.69C719.931 448.609 720.995 445.935 719.966 443.701C718.938 441.468 716.214 440.538 713.868 441.618L704.908 445.745C702.562 446.826 699.838 445.895 698.809 443.662C697.719 441.294 696.56 438.779 696.56 438.779" stroke="#6C63FF" stroke-width="3" stroke-miterlimit="10"/>
<path d="M715.766 476.832L712.699 478.244C712.473 478.348 712.223 478.252 712.13 478.05L711.975 477.714C711.876 477.498 711.985 477.252 712.197 477.155L715.264 475.742C715.49 475.638 715.74 475.735 715.833 475.937L715.988 476.273C716.095 476.468 715.992 476.728 715.766 476.832Z" fill="#579AA3"/>
<path d="M714.916 475.136L711.977 476.49C711.722 476.607 711.417 476.503 711.306 476.261L711.201 476.032C711.089 475.79 711.208 475.49 711.462 475.373L714.402 474.019C714.656 473.902 714.961 474.006 715.073 474.248L715.178 474.477C715.29 474.719 715.171 475.019 714.916 475.136Z" fill="#579AA3"/>
<path d="M715.217 475.975L712.419 477.264C712.249 477.342 712.046 477.272 711.971 477.111L711.792 476.721C711.717 476.559 711.797 476.36 711.966 476.282L714.764 474.993C714.934 474.915 715.151 474.978 715.226 475.139L715.405 475.529C715.48 475.691 715.4 475.89 715.217 475.975Z" fill="#579AA3"/>
<path d="M711.808 475.23C711.808 475.23 709.782 470.831 708.196 467.387C707.167 465.154 704.443 464.223 702.097 465.304L679.061 475.914C676.715 476.994 673.991 476.064 672.963 473.83C671.934 471.597 672.998 468.922 675.344 467.842L715.819 449.2C718.165 448.119 719.228 445.444 718.2 443.211C717.171 440.978 714.447 440.048 712.101 441.128L703.141 445.255C700.795 446.335 698.071 445.405 697.043 443.172C695.952 440.804 694.794 438.288 694.794 438.288" stroke="#2F3140" stroke-width="2" stroke-miterlimit="10" stroke-linecap="round" stroke-linejoin="round"/>
<path d="M714.635 477.352L711.568 478.765C711.342 478.869 711.092 478.772 710.999 478.57L710.844 478.234C710.745 478.019 710.855 477.773 711.067 477.675L714.133 476.263C714.359 476.159 714.61 476.255 714.703 476.457L714.857 476.793C714.965 476.989 714.861 477.248 714.635 477.352Z" fill="#2F3140"/>
<path d="M713.785 475.656L710.846 477.01C710.591 477.127 710.287 477.023 710.175 476.781L710.07 476.552C709.958 476.31 710.077 476.011 710.332 475.894L713.271 474.54C713.526 474.423 713.83 474.527 713.942 474.769L714.047 474.998C714.159 475.24 714.04 475.539 713.785 475.656Z" fill="#2F3140"/>
<path d="M714.055 476.428L711.257 477.717C711.087 477.795 710.884 477.726 710.81 477.564L710.692 477.309C710.618 477.147 710.697 476.948 710.867 476.869L713.665 475.581C713.834 475.503 714.038 475.572 714.112 475.733L714.23 475.989C714.318 476.144 714.239 476.344 714.055 476.428Z" fill="#2F3140"/>
<path d="M732.339 479.716C731.911 479.342 731.415 479.049 730.911 478.808C730.858 478.767 730.819 478.72 730.766 478.679C729.082 477.106 726.235 476.95 726.235 476.95C723.537 476.709 721.034 476.965 718.756 477.411C718.157 477.524 717.813 478.155 718.055 478.679L719.158 481.074L714.07 483.417L712.967 481.023C712.726 480.498 712.023 480.349 711.548 480.731C709.714 482.179 707.907 483.908 706.337 486.115C706.337 486.115 704.599 488.367 704.706 490.682C704.79 492.763 705.178 496.172 705.924 500.133L704.795 501.142C705.41 504.3 706.251 507.761 707.33 511.145L708.392 510.215C708.692 511.202 709.027 512.19 709.376 513.17L708.311 514.02C709.833 518.178 711.755 522.054 714.11 524.899L715.497 524.489C715.53 524.523 715.569 524.57 715.601 524.604C724.784 532.751 730.11 537.62 732.616 537.966C735.088 538.311 739.083 536.83 741.264 535.728C743.498 534.813 747.207 532.86 748.591 530.771C748.724 530.612 748.765 530.479 748.877 530.313C750.385 528.119 750.573 522.129 750.675 511.157L750.693 508.963L750.688 508.916C749.489 497.907 736.81 483.657 732.339 479.716Z" fill="#6C63FF" stroke="#6C63FF" stroke-width="2" stroke-miterlimit="10"/>
<path d="M709.29 509.933L707.736 510.649L705.857 512.15C707.379 516.308 709.301 520.184 711.656 523.03L716.147 521.695L709.29 509.933Z" fill="#7C7C94"/>
<path d="M709.29 509.933L707.736 510.649L705.857 512.15C707.379 516.308 709.301 520.184 711.656 523.03L716.147 521.695L709.29 509.933Z" stroke="#2F3140" stroke-width="3" stroke-miterlimit="10" stroke-linecap="round" stroke-linejoin="round"/>
<path d="M706.676 507.713L704.237 497.584L702.357 499.266C702.972 502.423 703.812 505.885 704.891 509.269L706.676 507.713Z" fill="#7C7C94"/>
<path d="M709.714 509.737L708.159 510.453L706.281 511.954C707.803 516.113 709.725 519.989 712.08 522.834L716.571 521.5L709.714 509.737Z" fill="#6C6D81"/>
<path d="M707.098 507.518L704.66 497.389L702.78 499.071C703.394 502.228 704.235 505.689 705.314 509.073L707.098 507.518Z" fill="#6C6D81"/>
<path d="M706.676 507.713L704.237 497.584L702.357 499.266C702.972 502.423 703.812 505.885 704.891 509.269L706.676 507.713Z" stroke="#2F3140" stroke-width="3" stroke-miterlimit="10" stroke-linecap="round" stroke-linejoin="round"/>
<path d="M729.906 477.853C728.086 476.245 725.114 476.114 724.804 476.11C723.82 476.057 722.827 476.058 721.824 476.112L746.169 528.968C746.301 528.81 746.442 528.631 746.554 528.465C748.061 526.271 748.107 520.232 748.229 509.267L748.247 507.074L748.243 507.027C747.056 496.044 734.383 481.808 729.906 477.853Z" fill="#565864"/>
<path d="M729.906 477.853C728.086 476.245 725.114 476.114 724.804 476.11C723.82 476.057 722.827 476.058 721.824 476.112L746.169 528.968C746.301 528.81 746.442 528.631 746.554 528.465C748.061 526.271 748.107 520.232 748.229 509.267L748.247 507.074L748.243 507.027C747.056 496.044 734.383 481.808 729.906 477.853Z" stroke="#2F3140" stroke-width="3" stroke-miterlimit="10" stroke-linecap="round" stroke-linejoin="round"/>
<path d="M728.332 476.816C726.648 475.244 723.801 475.087 723.801 475.087C721.103 474.846 718.6 475.102 716.322 475.548C715.723 475.661 715.379 476.292 715.621 476.817L716.73 479.225L711.642 481.568L710.54 479.173C710.298 478.649 709.595 478.499 709.12 478.881C707.286 480.329 705.479 482.059 703.909 484.266C703.909 484.266 702.171 486.518 702.278 488.833C702.544 495.249 705.7 514.488 713.153 522.748C722.336 530.895 727.662 535.764 730.168 536.11C732.64 536.455 736.634 534.974 738.816 533.871C741.078 532.944 744.8 530.871 746.138 528.754C747.49 526.631 747.266 519.413 747.043 507.139C745.604 496.093 733.035 481.189 728.332 476.816Z" fill="#51566A"/>
<path d="M731.314 485.113C729.696 481.602 727.824 478.355 725.768 475.453C724.681 475.139 723.801 475.087 723.801 475.087C721.103 474.846 718.6 475.102 716.322 475.548C715.723 475.661 715.379 476.292 715.621 476.817L716.73 479.225L711.642 481.568L710.54 479.173C710.298 478.649 709.595 478.499 709.12 478.881C707.286 480.329 705.479 482.059 703.909 484.266C703.909 484.266 702.171 486.518 702.278 488.833C702.544 495.249 705.7 514.488 713.153 522.748C715.856 525.156 718.229 527.259 720.287 529.05C722.652 529.2 724.913 528.828 727.004 527.864C737.937 522.813 739.864 503.678 731.314 485.113Z" fill="#6C6D81"/>
<path d="M728.332 476.816C726.648 475.244 723.801 475.087 723.801 475.087C721.103 474.846 718.6 475.102 716.322 475.548C715.723 475.661 715.379 476.292 715.621 476.817L716.73 479.225L711.642 481.568L710.54 479.173C710.298 478.649 709.595 478.499 709.12 478.881C707.286 480.329 705.479 482.059 703.909 484.266C703.909 484.266 702.171 486.518 702.278 488.833C702.544 495.249 705.7 514.488 713.153 522.748C722.336 530.895 727.662 535.764 730.168 536.11C732.64 536.455 736.634 534.974 738.816 533.871C741.078 532.944 744.8 530.871 746.138 528.754C747.49 526.631 747.266 519.413 747.043 507.139C745.604 496.093 733.035 481.189 728.332 476.816Z" stroke="#2F3140" stroke-width="2" stroke-miterlimit="10" stroke-linecap="round" stroke-linejoin="round"/>
<path d="M711.277 480.774L710.528 479.146C710.286 478.622 709.604 478.479 709.122 478.848C707.274 480.302 705.453 482.038 703.875 484.265C703.875 484.265 702.108 486.53 702.215 488.845C702.365 492.592 703.515 500.705 705.919 508.452C706.131 509.137 707.055 509.282 707.52 508.693C709.108 506.674 710.812 504.535 712.023 503.146C714.752 499.997 718.845 496.498 720.294 495.292C720.618 495.029 720.71 494.595 720.548 494.246L714.544 481.21C714.34 480.766 713.797 480.592 713.345 480.8L712.483 481.197C712.025 481.392 711.482 481.218 711.277 480.774Z" stroke="#2F3140" stroke-width="2" stroke-miterlimit="10" stroke-linecap="round" stroke-linejoin="round"/>
<path d="M728.332 476.816C726.649 475.243 723.801 475.087 723.801 475.087C721.104 474.846 718.601 475.102 716.322 475.548C715.723 475.66 715.38 476.291 715.622 476.816L716.731 479.224L714.187 480.396L720.842 494.844C720.842 494.844 727.68 493.586 732.84 493.558C734.682 493.541 737.415 493.635 739.968 493.748C740.718 493.777 741.208 492.981 740.826 492.374C736.5 485.512 731.082 479.365 728.332 476.816Z" stroke="#2F3140" stroke-width="3" stroke-miterlimit="10" stroke-linecap="round" stroke-linejoin="round"/>
<path d="M727.88 510.126C726.481 510.77 724.835 510.208 724.221 508.876L711.209 480.625C710.881 479.912 711.216 479.04 711.979 478.689L714.339 477.602C715.088 477.257 715.977 477.549 716.311 478.275L729.323 506.526C729.929 507.878 729.28 509.482 727.88 510.126Z" fill="#7C7C94"/>
<path d="M719.165 484.511L716.297 478.282C715.968 477.569 715.088 477.257 714.325 477.609L711.965 478.696C711.216 479.041 710.86 479.906 711.195 480.632L723.513 507.376L719.165 484.511Z" fill="#9093A2"/>
<path d="M724.945 500.814L723.191 497.007C722.925 496.429 722.207 496.172 721.585 496.458C720.963 496.745 720.686 497.444 720.958 498.035L722.712 501.843L724.945 500.814Z" fill="#3C4155"/>
<path d="M725.44 501.89L727.193 505.698C727.46 506.276 727.188 506.988 726.567 507.275C725.945 507.561 725.233 507.318 724.961 506.726L723.207 502.919L725.44 501.89V501.89Z" fill="#3C4155"/>
<path d="M727.88 510.126C726.481 510.77 724.835 510.208 724.221 508.876L711.216 480.639C710.881 479.912 711.23 479.034 711.993 478.682L714.325 477.608C715.088 477.257 715.983 477.562 716.317 478.289L729.323 506.526C729.929 507.878 729.28 509.482 727.88 510.126Z" stroke="#2F3140" stroke-width="6" stroke-miterlimit="10" stroke-linecap="round" stroke-linejoin="round"/>
<path d="M720.173 492.2L719.254 492.624C718.731 492.864 718.121 492.656 717.892 492.158L715.135 486.172C714.906 485.674 715.144 485.075 715.667 484.834L716.585 484.411C717.108 484.17 717.718 484.379 717.947 484.877L720.704 490.863C720.948 491.354 720.696 491.96 720.173 492.2Z" fill="#3B4254"/>
<path d="M718.103 492.208L720.618 491.049" stroke="#C06D4F" stroke-width="2" stroke-miterlimit="10" stroke-linecap="round" stroke-linejoin="round"/>
<path d="M717.731 491.401L720.247 490.243" stroke="#C06D4F" stroke-width="2" stroke-miterlimit="10" stroke-linecap="round" stroke-linejoin="round"/>
<path d="M717.359 490.594L719.875 489.435" stroke="#C06D4F" stroke-width="2" stroke-miterlimit="10" stroke-linecap="round" stroke-linejoin="round"/>
<path d="M716.988 489.787L719.504 488.628" stroke="#C06D4F" stroke-width="2" stroke-miterlimit="10" stroke-linecap="round" stroke-linejoin="round"/>
<path d="M716.616 488.979L719.132 487.821" stroke="#C06D4F" stroke-width="2" stroke-miterlimit="10" stroke-linecap="round" stroke-linejoin="round"/>
<path d="M716.244 488.173L718.76 487.014" stroke="#C06D4F" stroke-width="2" stroke-miterlimit="10" stroke-linecap="round" stroke-linejoin="round"/>
<path d="M715.873 487.365L718.389 486.207" stroke="#C06D4F" stroke-width="2" stroke-miterlimit="10" stroke-linecap="round" stroke-linejoin="round"/>
<path d="M715.501 486.559L718.017 485.4" stroke="#C06D4F" stroke-width="2" stroke-miterlimit="10" stroke-linecap="round" stroke-linejoin="round"/>
<path d="M715.129 485.751L717.644 484.592" stroke="#C06D4F" stroke-width="2" stroke-miterlimit="10" stroke-linecap="round" stroke-linejoin="round"/>
<path d="M720.172 492.201C719.861 492.344 719.564 492.481 719.254 492.624C718.731 492.865 718.078 492.676 717.793 492.204C716.692 490.298 715.769 488.293 715.035 486.218C714.863 485.694 715.143 485.076 715.666 484.835C715.977 484.692 716.274 484.555 716.585 484.412C717.108 484.171 717.76 484.36 718.046 484.831C719.146 486.738 720.07 488.742 720.803 490.818C720.99 491.335 720.695 491.96 720.172 492.201Z" stroke="#2F3140" stroke-width="3" stroke-miterlimit="10" stroke-linecap="round" stroke-linejoin="round"/>
<path d="M720.427 492.084L719.013 492.735C718.618 492.917 718.17 492.764 717.997 492.388L715.023 485.93C714.849 485.554 715.024 485.115 715.42 484.932L716.833 484.281C717.228 484.099 717.676 484.252 717.849 484.629L720.823 491.086C720.997 491.463 720.808 491.908 720.427 492.084Z" stroke="#2F3140" stroke-width="3" stroke-miterlimit="10" stroke-linecap="round" stroke-linejoin="round"/>
<path d="M724.945 500.814L723.191 497.007C722.925 496.429 722.207 496.172 721.585 496.458C720.963 496.745 720.686 497.444 720.958 498.035L722.712 501.843L724.945 500.814Z" stroke="#2F3140" stroke-width="3" stroke-miterlimit="10" stroke-linecap="round" stroke-linejoin="round"/>
<path d="M725.44 501.89L727.193 505.698C727.46 506.276 727.188 506.988 726.567 507.275C725.945 507.561 725.233 507.318 724.961 506.726L723.207 502.919L725.44 501.89V501.89Z" stroke="#2F3140" stroke-width="3" stroke-miterlimit="10" stroke-linecap="round" stroke-linejoin="round"/>
</g>
<defs>
<filter id="filter0_d" x="60.2607" y="0.941406" width="1032.26" height="882.357" filterUnits="userSpaceOnUse" color-interpolation-filters="sRGB">
<feFlood flood-opacity="0" result="BackgroundImageFix"/>
<feColorMatrix in="SourceAlpha" type="matrix" values="0 0 0 0 0 0 0 0 0 0 0 0 0 0 0 0 0 0 127 0"/>
<feOffset dx="-8" dy="16"/>
<feGaussianBlur stdDeviation="16"/>
<feColorMatrix type="matrix" values="0 0 0 0 0 0 0 0 0 0 0 0 0 0 0 0 0 0 0.25 0"/>
<feBlend mode="normal" in2="BackgroundImageFix" result="effect1_dropShadow"/>
<feBlend mode="normal" in="SourceGraphic" in2="effect1_dropShadow" result="shape"/>
</filter>
<filter id="filter1_bd" x="494.186" y="204.123" width="290.819" height="260.158" filterUnits="userSpaceOnUse" color-interpolation-filters="sRGB">
<feFlood flood-opacity="0" result="BackgroundImageFix"/>
<feGaussianBlur in="BackgroundImage" stdDeviation="2"/>
<feComposite in2="SourceAlpha" operator="in" result="effect1_backgroundBlur"/>
<feColorMatrix in="SourceAlpha" type="matrix" values="0 0 0 0 0 0 0 0 0 0 0 0 0 0 0 0 0 0 127 0"/>
<feOffset dy="16"/>
<feGaussianBlur stdDeviation="16"/>
<feColorMatrix type="matrix" values="0 0 0 0 0.321569 0 0 0 0 0.188235 0 0 0 0 0.533333 0 0 0 0.36 0"/>
<feBlend mode="normal" in2="effect1_backgroundBlur" result="effect2_dropShadow"/>
<feBlend mode="normal" in="SourceGraphic" in2="effect2_dropShadow" result="shape"/>
</filter>
<filter id="filter2_bd" x="733.429" y="107.729" width="367.093" height="313.951" filterUnits="userSpaceOnUse" color-interpolation-filters="sRGB">
<feFlood flood-opacity="0" result="BackgroundImageFix"/>
<feGaussianBlur in="BackgroundImage" stdDeviation="2"/>
<feComposite in2="SourceAlpha" operator="in" result="effect1_backgroundBlur"/>
<feColorMatrix in="SourceAlpha" type="matrix" values="0 0 0 0 0 0 0 0 0 0 0 0 0 0 0 0 0 0 127 0"/>
<feOffset dy="16"/>
<feGaussianBlur stdDeviation="16"/>
<feColorMatrix type="matrix" values="0 0 0 0 0.321569 0 0 0 0 0.188235 0 0 0 0 0.533333 0 0 0 0.36 0"/>
<feBlend mode="normal" in2="effect1_backgroundBlur" result="effect2_dropShadow"/>
<feBlend mode="normal" in="SourceGraphic" in2="effect2_dropShadow" result="shape"/>
</filter>
<filter id="filter3_bd" x="680.29" y="0.941406" width="327.667" height="224.444" filterUnits="userSpaceOnUse" color-interpolation-filters="sRGB">
<feFlood flood-opacity="0" result="BackgroundImageFix"/>
<feGaussianBlur in="BackgroundImage" stdDeviation="2"/>
<feComposite in2="SourceAlpha" operator="in" result="effect1_backgroundBlur"/>
<feColorMatrix in="SourceAlpha" type="matrix" values="0 0 0 0 0 0 0 0 0 0 0 0 0 0 0 0 0 0 127 0"/>
<feOffset dy="16"/>
<feGaussianBlur stdDeviation="16"/>
<feColorMatrix type="matrix" values="0 0 0 0 0.321569 0 0 0 0 0.188235 0 0 0 0 0.533333 0 0 0 0.36 0"/>
<feBlend mode="normal" in2="effect1_backgroundBlur" result="effect2_dropShadow"/>
<feBlend mode="normal" in="SourceGraphic" in2="effect2_dropShadow" result="shape"/>
</filter>
<filter id="filter4_bd" x="565.947" y="360.996" width="301.13" height="282.573" filterUnits="userSpaceOnUse" color-interpolation-filters="sRGB">
<feFlood flood-opacity="0" result="BackgroundImageFix"/>
<feGaussianBlur in="BackgroundImage" stdDeviation="2"/>
<feComposite in2="SourceAlpha" operator="in" result="effect1_backgroundBlur"/>
<feColorMatrix in="SourceAlpha" type="matrix" values="0 0 0 0 0 0 0 0 0 0 0 0 0 0 0 0 0 0 127 0"/>
<feOffset dy="16"/>
<feGaussianBlur stdDeviation="16"/>
<feColorMatrix type="matrix" values="0 0 0 0 0.321569 0 0 0 0 0.188235 0 0 0 0 0.533333 0 0 0 0.36 0"/>
<feBlend mode="normal" in2="effect1_backgroundBlur" result="effect2_dropShadow"/>
<feBlend mode="normal" in="SourceGraphic" in2="effect2_dropShadow" result="shape"/>
</filter>
<filter id="filter5_bd" x="89.4639" y="508.559" width="325.54" height="295.186" filterUnits="userSpaceOnUse" color-interpolation-filters="sRGB">
<feFlood flood-opacity="0" result="BackgroundImageFix"/>
<feGaussianBlur in="BackgroundImage" stdDeviation="2"/>
<feComposite in2="SourceAlpha" operator="in" result="effect1_backgroundBlur"/>
<feColorMatrix in="SourceAlpha" type="matrix" values="0 0 0 0 0 0 0 0 0 0 0 0 0 0 0 0 0 0 127 0"/>
<feOffset dy="16"/>
<feGaussianBlur stdDeviation="16"/>
<feColorMatrix type="matrix" values="0 0 0 0 0.321569 0 0 0 0 0.188235 0 0 0 0 0.533333 0 0 0 0.36 0"/>
<feBlend mode="normal" in2="effect1_backgroundBlur" result="effect2_dropShadow"/>
<feBlend mode="normal" in="SourceGraphic" in2="effect2_dropShadow" result="shape"/>
</filter>
<filter id="filter6_bd" x="165.556" y="674.678" width="286.631" height="208.621" filterUnits="userSpaceOnUse" color-interpolation-filters="sRGB">
<feFlood flood-opacity="0" result="BackgroundImageFix"/>
<feGaussianBlur in="BackgroundImage" stdDeviation="2"/>
<feComposite in2="SourceAlpha" operator="in" result="effect1_backgroundBlur"/>
<feColorMatrix in="SourceAlpha" type="matrix" values="0 0 0 0 0 0 0 0 0 0 0 0 0 0 0 0 0 0 127 0"/>
<feOffset dy="16"/>
<feGaussianBlur stdDeviation="16"/>
<feColorMatrix type="matrix" values="0 0 0 0 0.321569 0 0 0 0 0.188235 0 0 0 0 0.533333 0 0 0 0.36 0"/>
<feBlend mode="normal" in2="effect1_backgroundBlur" result="effect2_dropShadow"/>
<feBlend mode="normal" in="SourceGraphic" in2="effect2_dropShadow" result="shape"/>
</filter>
<filter id="filter7_bd" x="322.513" y="390.775" width="250.909" height="186.356" filterUnits="userSpaceOnUse" color-interpolation-filters="sRGB">
<feFlood flood-opacity="0" result="BackgroundImageFix"/>
<feGaussianBlur in="BackgroundImage" stdDeviation="2"/>
<feComposite in2="SourceAlpha" operator="in" result="effect1_backgroundBlur"/>
<feColorMatrix in="SourceAlpha" type="matrix" values="0 0 0 0 0 0 0 0 0 0 0 0 0 0 0 0 0 0 127 0"/>
<feOffset dy="16"/>
<feGaussianBlur stdDeviation="16"/>
<feColorMatrix type="matrix" values="0 0 0 0 0.321569 0 0 0 0 0.188235 0 0 0 0 0.533333 0 0 0 0.36 0"/>
<feBlend mode="normal" in2="effect1_backgroundBlur" result="effect2_dropShadow"/>
<feBlend mode="normal" in="SourceGraphic" in2="effect2_dropShadow" result="shape"/>
</filter>
<filter id="filter8_bd" x="367.829" y="471.829" width="305.586" height="310.929" filterUnits="userSpaceOnUse" color-interpolation-filters="sRGB">
<feFlood flood-opacity="0" result="BackgroundImageFix"/>
<feGaussianBlur in="BackgroundImage" stdDeviation="2"/>
<feComposite in2="SourceAlpha" operator="in" result="effect1_backgroundBlur"/>
<feColorMatrix in="SourceAlpha" type="matrix" values="0 0 0 0 0 0 0 0 0 0 0 0 0 0 0 0 0 0 127 0"/>
<feOffset dy="16"/>
<feGaussianBlur stdDeviation="16"/>
<feColorMatrix type="matrix" values="0 0 0 0 0.321569 0 0 0 0 0.188235 0 0 0 0 0.533333 0 0 0 0.36 0"/>
<feBlend mode="normal" in2="effect1_backgroundBlur" result="effect2_dropShadow"/>
<feBlend mode="normal" in="SourceGraphic" in2="effect2_dropShadow" result="shape"/>
</filter>
<clipPath id="clip0">
<rect width="230.045" height="141.288" fill="white" transform="translate(100.261 663.873) rotate(-24.8437)"/>
</clipPath>
<clipPath id="clip1">
<rect width="195.681" height="140" fill="white" transform="translate(404.262 584.287) rotate(-24.1524)"/>
</clipPath>
<clipPath id="clip2">
<rect width="213" height="126" fill="white" transform="translate(492.354 290.895) rotate(-24.7268)"/>
</clipPath>
<clipPath id="clip3">
<rect width="155.593" height="148.112" fill="white" transform="translate(625.262 470.313) rotate(-24.73)"/>
</clipPath>
</defs>
</svg>
