<svg width="360" height="522" viewBox="0 0 360 522" fill="none" xmlns="http://www.w3.org/2000/svg">
<g clip-path="url(#clip0)">
<mask id="mask0" mask-type="alpha" maskUnits="userSpaceOnUse" x="-258" y="-114" width="621" height="567">
<path d="M362.011 -114H-257.411V452.438H362.011V-114Z" fill="#C4C4C4"/>
</mask>
<g mask="url(#mask0)">
<path d="M207.872 343.498C194.961 363.879 204.582 423.259 146.074 436.058C98.094 443.462 75.2224 404.431 23.7557 433.922C23.7557 433.922 -12.4859 458.381 -85.9911 439.398C-172.03 417.179 -316.665 322.311 -231.457 285.755C-121.902 238.755 -255.386 173.42 -306.993 204.965C-353.892 233.631 -377.427 266.474 -381.601 154.544C-382.543 129.288 -368.933 110.828 -318.774 73.3633C-240.434 14.8503 -276.329 -2.50453 -305.877 3.45697C-341.389 10.6219 -340.669 -1.86157 -352.516 2.64807C-413.855 26.0002 -347.787 -65.7976 -339.14 -84.9661C-327.18 -111.478 -308.268 -135.556 -283.711 -156.517C-236.179 -197.088 -167.5 -225.98 -87.1516 -238.228C-40.5856 -245.327 9.90007 -246.836 62.4595 -241.79C103.529 -237.845 143.013 -230.173 180.077 -219.396C228.769 -205.24 273.282 -185.726 311.723 -162.276C363.478 -130.703 445.612 -65.7761 442.389 12.3898C440.349 61.8408 577.957 130.649 576.487 166.313C575.016 201.977 457.961 139.845 435.943 168.721C465.931 226.052 377.782 196.941 347.869 214.828C307.247 239.117 394.902 293.88 338.902 303.54C289.495 312.062 254.73 269.523 207.872 343.498Z" fill="url(#paint0_linear)"/>
<mask id="mask1" mask-type="alpha" maskUnits="userSpaceOnUse" x="-382" y="-245" width="959" height="692">
<path d="M207.872 343.498C194.961 363.879 204.582 423.259 146.074 436.058C98.094 443.462 75.2224 404.431 23.7557 433.922C23.7557 433.922 -12.4859 458.381 -85.9911 439.398C-172.03 417.179 -316.665 322.311 -231.457 285.755C-121.902 238.755 -255.386 173.42 -306.993 204.965C-353.892 233.631 -377.427 266.474 -381.601 154.544C-382.543 129.288 -368.933 110.828 -318.774 73.3633C-240.434 14.8503 -276.329 -2.50453 -305.877 3.45697C-341.389 10.6219 -340.669 -1.86157 -352.516 2.64807C-413.855 26.0002 -347.787 -65.7976 -339.14 -84.9661C-327.18 -111.478 -308.268 -135.556 -283.711 -156.517C-236.179 -197.088 -167.5 -225.98 -87.1516 -238.228C-40.5856 -245.327 9.90007 -246.836 62.4595 -241.79C103.529 -237.845 143.013 -230.173 180.077 -219.396C228.769 -205.24 273.282 -185.726 311.723 -162.276C363.478 -130.703 445.612 -65.7761 442.389 12.3898C440.349 61.8408 577.957 130.649 576.487 166.313C575.016 201.977 457.961 139.845 435.943 168.721C465.931 226.052 377.782 196.941 347.869 214.828C307.247 239.117 394.902 293.88 338.902 303.54C289.495 312.062 254.73 269.523 207.872 343.498Z" fill="url(#paint1_linear)"/>
</mask>
<g mask="url(#mask1)">
<path opacity="0.5" d="M189.834 18.5992C129.79 19.9862 156.148 84.2351 154.484 103.474C151.069 134.983 133.834 138.342 98.8566 184.755C63.8794 231.168 105.413 268.254 187.787 267.097C270.16 265.941 244.831 273.931 306.404 351.835C367.977 429.741 434.661 370.981 421.494 282.314C408.328 193.647 445.185 180.478 427.09 98.3657C408.996 16.2534 406.563 30.9095 325.481 51.2884C244.398 71.6676 249.878 17.2122 189.834 18.5992Z" stroke="url(#paint2_linear)" stroke-width="4"/>
<g clip-path="url(#clip1)">
<path opacity="0.5" d="M153.096 -42.1583C63.1798 -40.1011 102.663 55.697 100.175 84.3819C95.0666 131.36 69.2564 136.365 16.8857 205.559C-35.4852 274.754 26.719 330.055 150.076 328.346C273.432 326.637 235.502 338.544 327.723 454.709C419.944 570.875 519.795 483.278 500.062 351.075C480.329 218.873 535.521 199.246 508.409 76.8144C481.296 -45.6162 477.657 -23.7647 356.237 6.60504C234.817 36.9752 243.014 -44.2155 153.096 -42.1583Z" stroke="url(#paint3_linear)" stroke-width="4"/>
</g>
<g clip-path="url(#clip2)">
<path opacity="0.5" d="M122.798 -116.266C2.19087 -113.446 55.1145 16.3087 51.7674 55.1666C44.8982 118.806 10.2768 125.595 -59.994 219.345C-130.265 313.097 -46.8503 387.986 118.611 385.625C284.071 383.265 233.19 399.409 356.845 556.734C480.499 714.061 614.463 595.363 588.042 416.287C561.623 237.211 635.66 210.603 599.339 44.7658C563.018 -121.071 558.128 -91.469 395.255 -50.2851C232.382 -9.1007 243.406 -119.086 122.798 -116.266Z" stroke="url(#paint4_linear)" stroke-width="4"/>
</g>
</g>
</g>
</g>
<defs>
<linearGradient id="paint0_linear" x1="637.322" y1="-212.802" x2="-404.903" y2="-266.791" gradientUnits="userSpaceOnUse">
<stop stop-color="#2A0845"/>
<stop offset="1" stop-color="#6441A5"/>
</linearGradient>
<linearGradient id="paint1_linear" x1="637.322" y1="-212.802" x2="-404.903" y2="-266.791" gradientUnits="userSpaceOnUse">
<stop stop-color="#2A0845"/>
<stop offset="1" stop-color="#6441A5"/>
</linearGradient>
<linearGradient id="paint2_linear" x1="282.041" y1="11.7371" x2="210.133" y2="356.813" gradientUnits="userSpaceOnUse">
<stop stop-color="#5B3896"/>
<stop offset="1" stop-color="#3A175F"/>
</linearGradient>
<linearGradient id="paint3_linear" x1="291.178" y1="-52.3728" x2="184.343" y2="462.276" gradientUnits="userSpaceOnUse">
<stop stop-color="#5B3896"/>
<stop offset="1" stop-color="#3A175F"/>
</linearGradient>
<linearGradient id="paint4_linear" x1="308.013" y1="-130.154" x2="162.135" y2="566.537" gradientUnits="userSpaceOnUse">
<stop stop-color="#5B3896"/>
<stop offset="1" stop-color="#3A175F"/>
</linearGradient>
<clipPath id="clip0">
<rect width="362" height="636" fill="white" transform="translate(-2 -114)"/>
</clipPath>
<clipPath id="clip1">
<rect width="557.506" height="623.393" fill="white" transform="translate(-7.60254 -109.185) rotate(1.5794)"/>
</clipPath>
<clipPath id="clip2">
<rect width="747.784" height="844.464" fill="white" transform="translate(-92.7246 -207) rotate(1.5794)"/>
</clipPath>
</defs>
</svg>
