<svg width="360" height="461" viewBox="0 0 360 461" fill="none" xmlns="http://www.w3.org/2000/svg">
<g clip-path="url(#clip0)">
<mask id="mask0" mask-type="alpha" maskUnits="userSpaceOnUse" x="-258" y="-175" width="621" height="567">
<path d="M362.011 -175H-257.411V391.438H362.011V-175Z" fill="#C4C4C4"/>
</mask>
<g mask="url(#mask0)">
<path d="M207.872 282.498C194.961 302.879 204.582 362.259 146.074 375.058C98.094 382.462 75.2224 343.431 23.7557 372.922C23.7557 372.922 -12.4859 397.381 -85.9911 378.398C-172.03 356.179 -316.665 261.311 -231.457 224.755C-121.902 177.755 -255.386 112.42 -306.993 143.965C-353.892 172.631 -377.427 205.474 -381.601 93.5437C-382.543 68.2876 -368.933 49.8277 -318.774 12.3633C-240.434 -46.1497 -276.329 -63.5045 -305.877 -57.543C-341.389 -50.3781 -340.669 -62.8616 -352.516 -58.3519C-413.855 -34.9998 -347.787 -126.798 -339.14 -145.966C-327.18 -172.478 -308.268 -196.556 -283.711 -217.517C-236.179 -258.088 -167.5 -286.98 -87.1516 -299.228C-40.5856 -306.327 9.90007 -307.836 62.4595 -302.79C103.529 -298.845 143.013 -291.173 180.077 -280.396C228.769 -266.24 273.282 -246.726 311.723 -223.276C363.478 -191.703 445.612 -126.776 442.389 -48.6102C440.349 0.840781 577.957 69.649 576.487 105.313C575.016 140.977 457.961 78.8452 435.943 107.721C465.931 165.052 377.782 135.941 347.869 153.828C307.247 178.117 394.902 232.88 338.902 242.54C289.495 251.062 254.73 208.523 207.872 282.498Z" fill="url(#paint0_linear)"/>
<mask id="mask1" mask-type="alpha" maskUnits="userSpaceOnUse" x="-382" y="-306" width="959" height="692">
<path d="M207.872 282.498C194.961 302.879 204.582 362.259 146.074 375.058C98.094 382.462 75.2224 343.431 23.7557 372.922C23.7557 372.922 -12.4859 397.381 -85.9911 378.398C-172.03 356.179 -316.665 261.311 -231.457 224.755C-121.902 177.755 -255.386 112.42 -306.993 143.965C-353.892 172.631 -377.427 205.474 -381.601 93.5437C-382.543 68.2876 -368.933 49.8277 -318.774 12.3633C-240.434 -46.1497 -276.329 -63.5045 -305.877 -57.543C-341.389 -50.3781 -340.669 -62.8616 -352.516 -58.3519C-413.855 -34.9998 -347.787 -126.798 -339.14 -145.966C-327.18 -172.478 -308.268 -196.556 -283.711 -217.517C-236.179 -258.088 -167.5 -286.98 -87.1516 -299.228C-40.5856 -306.327 9.90007 -307.836 62.4595 -302.79C103.529 -298.845 143.013 -291.173 180.077 -280.396C228.769 -266.24 273.282 -246.726 311.723 -223.276C363.478 -191.703 445.612 -126.776 442.389 -48.6102C440.349 0.840781 577.957 69.649 576.487 105.313C575.016 140.977 457.961 78.8452 435.943 107.721C465.931 165.052 377.782 135.941 347.869 153.828C307.247 178.117 394.902 232.88 338.902 242.54C289.495 251.062 254.73 208.523 207.872 282.498Z" fill="url(#paint1_linear)"/>
</mask>
<g mask="url(#mask1)">
<path opacity="0.5" d="M189.834 -42.4008C129.79 -41.0138 156.148 23.2351 154.484 42.4743C151.069 73.9833 133.834 77.3419 98.8566 123.755C63.8794 170.168 105.413 207.254 187.787 206.097C270.16 204.941 244.831 212.931 306.404 290.835C367.977 368.741 434.661 309.981 421.494 221.314C408.328 132.647 445.185 119.478 427.09 37.3657C408.996 -44.7466 406.563 -30.0905 325.481 -9.71155C244.398 10.6676 249.878 -43.7878 189.834 -42.4008Z" stroke="url(#paint2_linear)" stroke-width="4"/>
<g clip-path="url(#clip1)">
<path opacity="0.5" d="M153.096 -103.158C63.1798 -101.101 102.663 -5.30304 100.175 23.3819C95.0666 70.3604 69.2564 75.3648 16.8857 144.559C-35.4852 213.754 26.719 269.055 150.076 267.346C273.432 265.637 235.502 277.544 327.723 393.709C419.944 509.875 519.795 422.278 500.062 290.075C480.329 157.873 535.521 138.246 508.409 15.8144C481.296 -106.616 477.657 -84.7647 356.237 -54.395C234.817 -24.0248 243.014 -105.215 153.096 -103.158Z" stroke="url(#paint3_linear)" stroke-width="4"/>
</g>
<g clip-path="url(#clip2)">
<path opacity="0.5" d="M122.798 -177.266C2.19087 -174.446 55.1145 -44.6913 51.7674 -5.83338C44.8982 57.8063 10.2768 64.5949 -59.994 158.345C-130.265 252.097 -46.8503 326.986 118.611 324.625C284.071 322.265 233.19 338.409 356.845 495.734C480.499 653.061 614.463 534.363 588.042 355.287C561.623 176.211 635.66 149.603 599.339 -16.2342C563.018 -182.071 558.128 -152.469 395.255 -111.285C232.382 -70.1007 243.406 -180.086 122.798 -177.266Z" stroke="url(#paint4_linear)" stroke-width="4"/>
</g>
</g>
</g>
</g>
<defs>
<linearGradient id="paint0_linear" x1="637.322" y1="-273.802" x2="-404.903" y2="-327.791" gradientUnits="userSpaceOnUse">
<stop stop-color="#2A0845"/>
<stop offset="1" stop-color="#6441A5"/>
</linearGradient>
<linearGradient id="paint1_linear" x1="637.322" y1="-273.802" x2="-404.903" y2="-327.791" gradientUnits="userSpaceOnUse">
<stop stop-color="#2A0845"/>
<stop offset="1" stop-color="#6441A5"/>
</linearGradient>
<linearGradient id="paint2_linear" x1="282.041" y1="-49.2629" x2="210.133" y2="295.813" gradientUnits="userSpaceOnUse">
<stop stop-color="#5B3896"/>
<stop offset="1" stop-color="#3A175F"/>
</linearGradient>
<linearGradient id="paint3_linear" x1="291.178" y1="-113.373" x2="184.343" y2="401.276" gradientUnits="userSpaceOnUse">
<stop stop-color="#5B3896"/>
<stop offset="1" stop-color="#3A175F"/>
</linearGradient>
<linearGradient id="paint4_linear" x1="308.013" y1="-191.154" x2="162.135" y2="505.537" gradientUnits="userSpaceOnUse">
<stop stop-color="#5B3896"/>
<stop offset="1" stop-color="#3A175F"/>
</linearGradient>
<clipPath id="clip0">
<rect width="362" height="636" fill="white" transform="translate(-2 -175)"/>
</clipPath>
<clipPath id="clip1">
<rect width="557.506" height="623.393" fill="white" transform="translate(-7.60254 -170.185) rotate(1.5794)"/>
</clipPath>
<clipPath id="clip2">
<rect width="747.784" height="844.464" fill="white" transform="translate(-92.7246 -268) rotate(1.5794)"/>
</clipPath>
</defs>
</svg>
