<svg width="368" height="564" viewBox="0 0 368 564" fill="none" xmlns="http://www.w3.org/2000/svg">
<g clip-path="url(#clip0)" filter="url(#filter0_d)">
<mask id="mask0" mask-type="alpha" maskUnits="userSpaceOnUse" x="-251" y="-83" width="618" height="639">
<path d="M366.011 -82.0151H-251V556H366.011V-82.0151Z" fill="#C4C4C4"/>
</mask>
<g mask="url(#mask0)">
<path d="M377.473 498.354C364.612 521.31 374.196 588.194 315.916 602.61C268.122 610.95 245.34 566.987 194.074 600.204C194.074 600.204 157.973 627.754 84.7539 606.372C-0.95011 581.346 -145.022 474.49 -60.1458 433.314C48.9828 380.375 -83.9817 306.784 -135.388 342.315C-182.104 374.604 -205.548 411.597 -209.705 285.523C-210.644 257.076 -197.087 236.283 -147.123 194.084C-69.0879 128.177 -104.843 108.629 -134.276 115.344C-169.65 123.414 -168.933 109.354 -180.734 114.433C-241.834 140.736 -176.023 37.3383 -167.41 15.7476C-155.496 -14.1144 -136.658 -41.235 -112.196 -64.8447C-64.8494 -110.542 3.56224 -143.085 83.5979 -156.881C129.983 -164.877 180.272 -166.577 232.627 -160.893C273.536 -156.45 312.867 -147.808 349.786 -135.669C398.289 -119.724 442.629 -97.7446 480.92 -71.3314C532.473 -35.7687 614.288 37.3625 611.077 125.406C609.045 181.106 746.118 258.609 744.653 298.779C743.188 338.95 626.589 268.967 604.656 301.492C634.528 366.067 546.722 333.278 516.925 353.425C476.461 380.783 563.775 442.466 507.993 453.347C458.778 462.946 424.149 415.031 377.473 498.354Z" fill="url(#paint0_linear)"/>
<mask id="mask1" mask-type="alpha" maskUnits="userSpaceOnUse" x="-210" y="-165" width="955" height="780">
<path d="M377.473 498.354C364.612 521.31 374.196 588.194 315.916 602.61C268.122 610.95 245.34 566.987 194.074 600.204C194.074 600.204 157.973 627.754 84.7539 606.372C-0.95011 581.346 -145.022 474.49 -60.1458 433.314C48.9828 380.375 -83.9817 306.784 -135.388 342.315C-182.104 374.604 -205.548 411.597 -209.705 285.523C-210.644 257.076 -197.087 236.283 -147.123 194.084C-69.0879 128.177 -104.843 108.629 -134.276 115.344C-169.65 123.414 -168.933 109.354 -180.734 114.433C-241.834 140.736 -176.023 37.3383 -167.41 15.7476C-155.496 -14.1144 -136.658 -41.235 -112.196 -64.8447C-64.8494 -110.542 3.56224 -143.085 83.5979 -156.881C129.983 -164.877 180.272 -166.577 232.627 -160.893C273.536 -156.45 312.867 -147.808 349.786 -135.669C398.289 -119.724 442.629 -97.7446 480.92 -71.3314C532.473 -35.7687 614.288 37.3625 611.077 125.406C609.045 181.106 746.118 258.609 744.653 298.779C743.188 338.95 626.589 268.967 604.656 301.492C634.528 366.067 546.722 333.278 516.925 353.425C476.461 380.783 563.775 442.466 507.993 453.347C458.778 462.946 424.149 415.031 377.473 498.354Z" fill="url(#paint1_linear)"/>
</mask>
<g mask="url(#mask1)">
<path opacity="0.5" d="M359.505 132.4C299.695 133.962 325.95 206.33 324.293 228C320.891 263.49 303.723 267.274 268.882 319.552C234.041 371.83 275.413 413.602 357.466 412.299C439.519 410.997 414.288 419.996 475.622 507.745C536.955 595.495 603.379 529.31 590.264 429.439C577.149 329.567 613.862 314.734 595.838 222.246C577.814 129.758 575.391 146.266 494.624 169.22C413.857 192.174 419.316 130.838 359.505 132.4Z" stroke="url(#paint2_linear)" stroke-width="4"/>
<path opacity="0.5" d="M322.911 63.9643C233.344 66.2814 272.674 174.185 270.196 206.495C265.107 259.409 239.397 265.046 187.23 342.984C135.063 420.923 197.025 483.212 319.902 481.287C442.778 479.362 404.996 492.774 496.858 623.618C588.72 754.463 688.182 655.797 668.526 506.888C648.87 357.98 703.847 335.873 676.841 197.971C649.833 60.0694 646.208 84.6821 525.261 118.89C404.313 153.097 412.479 61.6471 322.911 63.9643Z" stroke="url(#paint3_linear)" stroke-width="4"/>
<path opacity="0.5" d="M292.73 -19.5077C172.593 -16.3314 225.31 129.82 221.976 173.588C215.134 245.269 180.647 252.916 110.65 358.512C40.6524 464.111 123.742 548.463 288.56 545.804C453.376 543.146 402.693 561.33 525.866 738.535C649.039 915.742 782.482 782.045 756.163 580.341C729.847 378.636 803.596 348.666 767.416 161.873C731.237 -24.9199 726.366 8.42272 564.127 54.8108C401.888 101.199 412.869 -22.6841 292.73 -19.5077Z" stroke="url(#paint4_linear)" stroke-width="4"/>
</g>
</g>
</g>
<defs>
<filter id="filter0_d" x="0" y="0" width="368" height="564" filterUnits="userSpaceOnUse" color-interpolation-filters="sRGB">
<feFlood flood-opacity="0" result="BackgroundImageFix"/>
<feColorMatrix in="SourceAlpha" type="matrix" values="0 0 0 0 0 0 0 0 0 0 0 0 0 0 0 0 0 0 127 0"/>
<feOffset dy="4"/>
<feGaussianBlur stdDeviation="2"/>
<feColorMatrix type="matrix" values="0 0 0 0 0 0 0 0 0 0 0 0 0 0 0 0 0 0 0.25 0"/>
<feBlend mode="normal" in2="BackgroundImageFix" result="effect1_dropShadow"/>
<feBlend mode="normal" in="SourceGraphic" in2="effect1_dropShadow" result="shape"/>
</filter>
<linearGradient id="paint0_linear" x1="805.252" y1="-128.242" x2="-233.523" y2="-175.83" gradientUnits="userSpaceOnUse">
<stop stop-color="#2A0845"/>
<stop offset="1" stop-color="#6441A5"/>
</linearGradient>
<linearGradient id="paint1_linear" x1="805.252" y1="-128.242" x2="-233.523" y2="-175.83" gradientUnits="userSpaceOnUse">
<stop stop-color="#2A0845"/>
<stop offset="1" stop-color="#6441A5"/>
</linearGradient>
<linearGradient id="paint2_linear" x1="451.353" y1="124.671" x2="360.817" y2="508.896" gradientUnits="userSpaceOnUse">
<stop stop-color="#5B3896"/>
<stop offset="1" stop-color="#3A175F"/>
</linearGradient>
<linearGradient id="paint3_linear" x1="460.455" y1="52.459" x2="325.933" y2="625.544" gradientUnits="userSpaceOnUse">
<stop stop-color="#5B3896"/>
<stop offset="1" stop-color="#3A175F"/>
</linearGradient>
<linearGradient id="paint4_linear" x1="477.224" y1="-35.1507" x2="293.576" y2="740.499" gradientUnits="userSpaceOnUse">
<stop stop-color="#5B3896"/>
<stop offset="1" stop-color="#3A175F"/>
</linearGradient>
<clipPath id="clip0">
<rect width="360" height="556" fill="white" transform="translate(4)"/>
</clipPath>
</defs>
</svg>
