<svg id="Capa_1" enable-background="new 0 0 512 512" height="512" viewBox="0 0 512 512" width="512" xmlns="http://www.w3.org/2000/svg"><g><path d="m241 391h30v90h-30z" fill="#d5e8fe"/><path d="m256 391h15v90h-15z" fill="#b5dbff"/><path d="m0 16v390h512v-390z" fill="#5f55af"/><path d="m256 16h256v390h-256z" fill="#453d83"/><path d="m121 466h270v30h-270z" fill="#edf5ff"/><path d="m256 466h135v30h-135z" fill="#d5e8fe"/><g fill="#64e1dc"><path d="m301.601 286-45.601 39-20.099 17.4-19.802-22.8 39.3-33.6-39.3-33.6 19.802-22.8 20.099 17.4z"/><path d="m126.244 342.382-65.786-56.382 65.786-56.382 19.512 22.764-39.214 33.618 39.214 33.618z"/><path d="m119.153 271.007h123.693v29.985h-123.693z" transform="matrix(.242 -.97 .97 .242 -140.335 392.307)"/></g><path d="m181 106h30v30h-30z" fill="#ffda2d"/><path d="m241 106h30v30h-30z" fill="#ffda2d"/><path d="m361 166h30v30h-30z" fill="#9cdd05"/><path d="m421 166h30v30h-30z" fill="#9cdd05"/><path d="m361 286h30v30h-30z" fill="#00c8c8"/><path d="m421 286h30v30h-30z" fill="#00c8c8"/><path d="m301 106h150v30h-150z" fill="#00c8c8"/><path d="m331 226h30v30h-30z" fill="#fdbf00"/><path d="m391 226h60v30h-60z" fill="#fdbf00"/><path d="m61 106h90v30h-90z" fill="#ffda2d"/><path d="m181 166h150v30h-150z" fill="#ff80ac"/><path d="m91 166h60v30h-60z" fill="#c3ea21"/><path d="m256 106h15v30h-15z" fill="#fdbf00"/><path d="m256 247 45.601 39-45.601 39z" fill="#00c8c8"/><path d="m256 166h75v30h-75z" fill="#ff3980"/></g></svg>