<?xml version="1.0" encoding="iso-8859-1"?>
<!-- Generator: Adobe Illustrator 19.0.0, SVG Export Plug-In . SVG Version: 6.00 Build 0)  -->
<svg version="1.1" id="Capa_1" xmlns="http://www.w3.org/2000/svg" xmlns:xlink="http://www.w3.org/1999/xlink" x="0px" y="0px"
	 viewBox="0 0 512 512" style="enable-background:new 0 0 512 512;" xml:space="preserve">
<path style="fill:#E7ECED;" d="M370.759,503.172H141.241c-9.754,0-17.655-7.901-17.655-17.655l0,0
	c0-9.754,7.901-17.655,17.655-17.655h229.517c9.754,0,17.655,7.901,17.655,17.655l0,0
	C388.414,495.272,380.513,503.172,370.759,503.172z"/>
<path style="fill:#AFB6BB;" d="M300.138,397.241v-17.655h-88.276v17.655c0,39.036-13.93,70.621-52.966,70.621h194.207
	C314.068,467.862,300.138,436.277,300.138,397.241z"/>
<path style="fill:#E7ECED;" d="M485.508,397.241H26.492C11.864,397.241,0,385.377,0,370.75v-52.957h512v52.957
	C512,385.377,500.136,397.241,485.508,397.241z"/>
<path style="fill:#AFB6BB;" d="M282.483,370.759h-52.966c-4.873,0-8.828-3.955-8.828-8.828s3.955-8.828,8.828-8.828h52.966
	c4.873,0,8.828,3.955,8.828,8.828S287.356,370.759,282.483,370.759z"/>
<path style="fill:#495D72;" d="M441.379,8.828H70.621H26.492C11.864,8.828,0,20.692,0,35.319v291.302h70.621h132.414h105.931
	h132.414H512V35.319c0-14.627-11.864-26.492-26.492-26.492H441.379z"/>
<rect x="238.345" y="44.138" style="fill:#28384C;" width="238.345" height="282.483"/>
<rect x="35.31" y="44.138" style="fill:#EBBA16;" width="220.69" height="282.483"/>
<g>
	<path style="fill:#FFFFFF;" d="M132.405,300.138c-1.324,0-2.675-0.3-3.946-0.927c-4.361-2.18-6.126-7.486-3.946-11.847
		l26.483-52.965c2.18-4.361,7.495-6.126,11.847-3.946c4.361,2.18,6.126,7.486,3.946,11.847l-26.483,52.965
		C138.761,298.355,135.645,300.138,132.405,300.138z"/>
	<path style="fill:#FFFFFF;" d="M70.621,273.655c-2.26,0-4.52-0.865-6.241-2.586c-3.452-3.452-3.452-9.031,0-12.482l26.483-26.483
		c3.443-3.452,9.039-3.452,12.482,0c3.452,3.452,3.452,9.031,0,12.482l-26.483,26.483C75.14,272.79,72.881,273.655,70.621,273.655z"
		/>
	<path style="fill:#FFFFFF;" d="M97.103,300.138c-2.26,0-4.52-0.865-6.241-2.586L64.38,271.069c-3.452-3.452-3.452-9.031,0-12.482
		c3.443-3.452,9.039-3.452,12.482,0l26.483,26.483c3.452,3.452,3.452,9.031,0,12.482C101.623,299.273,99.363,300.138,97.103,300.138
		z"/>
	<path style="fill:#FFFFFF;" d="M220.69,273.655c-2.26,0-4.52-0.865-6.241-2.586l-26.483-26.483c-3.452-3.452-3.452-9.031,0-12.482
		c3.443-3.452,9.039-3.452,12.482,0l26.483,26.483c3.452,3.452,3.452,9.031,0,12.482C225.209,272.79,222.95,273.655,220.69,273.655z
		"/>
	<path style="fill:#FFFFFF;" d="M194.207,300.138c-2.26,0-4.52-0.865-6.241-2.586c-3.452-3.452-3.452-9.031,0-12.482l26.483-26.483
		c3.443-3.452,9.039-3.452,12.482,0c3.452,3.452,3.452,9.031,0,12.482l-26.483,26.483
		C198.727,299.273,196.467,300.138,194.207,300.138z"/>
	<path style="fill:#FFFFFF;" d="M150.069,150.069c-4.873,0-8.828-3.955-8.828-8.828V79.448c0-4.873,3.955-8.828,8.828-8.828
		c4.873,0,8.828,3.955,8.828,8.828v61.793C158.897,146.114,154.942,150.069,150.069,150.069z"/>
	<path style="fill:#FFFFFF;" d="M150.069,203.034c-4.873,0-8.828-3.955-8.828-8.828v-17.655c0-4.873,3.955-8.828,8.828-8.828
		c4.873,0,8.828,3.955,8.828,8.828v17.655C158.897,199.08,154.942,203.034,150.069,203.034z"/>
</g>
<path style="fill:#DD352E;" d="M379.586,88.276H291.31c-4.873,0-8.828-3.955-8.828-8.828c0-4.873,3.955-8.828,8.828-8.828h88.276
	c4.873,0,8.828,3.955,8.828,8.828C388.414,84.321,384.459,88.276,379.586,88.276z"/>
<path style="fill:#366DB6;" d="M441.379,88.276h-26.483c-4.873,0-8.828-3.955-8.828-8.828c0-4.873,3.955-8.828,8.828-8.828h26.483
	c4.873,0,8.828,3.955,8.828,8.828C450.207,84.321,446.252,88.276,441.379,88.276z"/>
<path style="fill:#75348B;" d="M441.379,123.586h-88.276c-4.873,0-8.828-3.955-8.828-8.828s3.955-8.828,8.828-8.828h88.276
	c4.873,0,8.828,3.955,8.828,8.828S446.252,123.586,441.379,123.586z"/>
<path style="fill:#57ABC1;" d="M317.793,123.586H291.31c-4.873,0-8.828-3.955-8.828-8.828s3.955-8.828,8.828-8.828h26.483
	c4.873,0,8.828,3.955,8.828,8.828S322.666,123.586,317.793,123.586z"/>
<path style="fill:#25AE88;" d="M379.586,158.897H291.31c-4.873,0-8.828-3.955-8.828-8.828c0-4.873,3.955-8.828,8.828-8.828h88.276
	c4.873,0,8.828,3.955,8.828,8.828C388.414,154.942,384.459,158.897,379.586,158.897z"/>
<path style="fill:#F76363;" d="M441.379,158.897h-26.483c-4.873,0-8.828-3.955-8.828-8.828c0-4.873,3.955-8.828,8.828-8.828h26.483
	c4.873,0,8.828,3.955,8.828,8.828C450.207,154.942,446.252,158.897,441.379,158.897z"/>
<path style="fill:#BF5A45;" d="M441.379,194.207h-88.276c-4.873,0-8.828-3.955-8.828-8.828c0-4.873,3.955-8.828,8.828-8.828h88.276
	c4.873,0,8.828,3.955,8.828,8.828C450.207,190.252,446.252,194.207,441.379,194.207z"/>
<path style="fill:#F2ECBF;" d="M317.793,194.207H291.31c-4.873,0-8.828-3.955-8.828-8.828c0-4.873,3.955-8.828,8.828-8.828h26.483
	c4.873,0,8.828,3.955,8.828,8.828C326.621,190.252,322.666,194.207,317.793,194.207z"/>
<path style="fill:#25AE88;" d="M441.379,300.138h-88.276c-4.873,0-8.828-3.955-8.828-8.828c0-4.873,3.955-8.828,8.828-8.828h88.276
	c4.873,0,8.828,3.955,8.828,8.828C450.207,296.183,446.252,300.138,441.379,300.138z"/>
<path style="fill:#DD352E;" d="M317.793,300.138H291.31c-4.873,0-8.828-3.955-8.828-8.828c0-4.873,3.955-8.828,8.828-8.828h26.483
	c4.873,0,8.828,3.955,8.828,8.828C326.621,296.183,322.666,300.138,317.793,300.138z"/>
<path style="fill:#75348B;" d="M379.586,229.517H291.31c-4.873,0-8.828-3.955-8.828-8.828c0-4.873,3.955-8.828,8.828-8.828h88.276
	c4.873,0,8.828,3.955,8.828,8.828C388.414,225.562,384.459,229.517,379.586,229.517z"/>
<path style="fill:#EBBA16;" d="M441.379,229.517h-26.483c-4.873,0-8.828-3.955-8.828-8.828c0-4.873,3.955-8.828,8.828-8.828h26.483
	c4.873,0,8.828,3.955,8.828,8.828C450.207,225.562,446.252,229.517,441.379,229.517z"/>
<path style="fill:#ED8A19;" d="M441.379,264.828h-88.276c-4.873,0-8.828-3.955-8.828-8.828s3.955-8.828,8.828-8.828h88.276
	c4.873,0,8.828,3.955,8.828,8.828S446.252,264.828,441.379,264.828z"/>
<path style="fill:#C5411E;" d="M317.793,264.828H291.31c-4.873,0-8.828-3.955-8.828-8.828s3.955-8.828,8.828-8.828h26.483
	c4.873,0,8.828,3.955,8.828,8.828S322.666,264.828,317.793,264.828z"/>
<g>
</g>
<g>
</g>
<g>
</g>
<g>
</g>
<g>
</g>
<g>
</g>
<g>
</g>
<g>
</g>
<g>
</g>
<g>
</g>
<g>
</g>
<g>
</g>
<g>
</g>
<g>
</g>
<g>
</g>
</svg>
