<svg id="Capa_1" enable-background="new 0 0 512 512" height="512" viewBox="0 0 512 512" width="512" xmlns="http://www.w3.org/2000/svg"><path d="m181 375 75 15 75-15c0-40.005 20.391-67.207 42.012-96.006 23.584-31.465 47.988-63.999 47.988-113.994 0-90.981-74.033-165-165-165s-165 74.019-165 165c0 49.995 24.404 82.529 47.988 113.994 21.621 28.799 42.012 56.001 42.012 96.006z" fill="#ffe566"/><path d="m331 375c0-40.005 20.391-67.207 42.012-96.006 23.584-31.465 47.988-63.999 47.988-113.994 0-90.981-74.033-165-165-165v390z" fill="#ffc24d"/><path d="m181 467c0 24.814 20.186 45 45 45h60c24.814 0 45-20.186 45-45v-92h-150z" fill="#cce6ff"/><path d="m331 375h-75v137h30c24.814 0 45-20.186 45-45z" fill="#b5c9f2"/><g><g id="Bulb_2_"><g><path d="m361 437c0 8.291-6.709 15-15 15h-180c-8.291 0-15-6.709-15-15s6.709-15 15-15h180c8.291 0 15 6.709 15 15z" fill="#e6f7ff"/></g><g><path d="m361 375c0 8.291-6.709 15-15 15h-180c-8.291 0-15-6.709-15-15s6.709-15 15-15h180c8.291 0 15 6.709 15 15z" fill="#e6f7ff"/></g></g><g><path d="m206.605 124.395c-5.859-5.859-15.352-5.859-21.211 0l-30 30c-5.859 5.859-5.859 15.352 0 21.211l30 30c5.859 5.859 15.351 5.86 21.211 0 5.859-5.859 5.859-15.352 0-21.211l-19.394-19.395 19.395-19.395c5.859-5.859 5.859-15.351-.001-21.21z" fill="#4d4d99"/><path d="m356.605 175.605c5.859-5.859 5.859-15.352 0-21.211l-30-30c-5.859-5.859-15.352-5.859-21.211 0s-5.859 15.352 0 21.211l19.395 19.395-19.395 19.395c-5.859 5.859-5.859 15.352 0 21.211s15.351 5.86 21.211 0z" fill="#292966"/><path d="m274.633 90.454c-8.115-2.021-16.201 2.856-18.193 10.913l-30 120c-1.992 8.027 2.871 16.172 10.928 18.179 8.022 2.006 16.188-2.856 18.193-10.913l30-120c1.992-8.028-2.872-16.172-10.928-18.179z" fill="#4d4d99"/></g><path d="m274.633 90.454c-8.115-2.021-16.201 2.856-18.193 10.913l-.44 1.758v123.75l29.561-118.242c1.992-8.028-2.872-16.172-10.928-18.179z" fill="#292966"/><g fill="#cce6ff"><path d="m361 437c0-8.291-6.709-15-15-15h-90v30h90c8.291 0 15-6.709 15-15z"/><path d="m346 360h-90v30h90c8.291 0 15-6.709 15-15s-6.709-15-15-15z"/></g></g></svg>