<svg id="Capa_1" enable-background="new 0 0 512 512" height="512" viewBox="0 0 512 512" width="512" xmlns="http://www.w3.org/2000/svg"><g><path d="m319.21 445.892c-9.486-6.328-15.263-17.521-15.263-29.575v-30.161l-4.379-4.181h-82.929l-8.585 4.181v30.161c0 12.054-5.776 23.247-15.263 29.575l-21.257 14.18 4.414 4.06h160.965l3.556-4.06z" fill="#4a80aa"/><path d="m236.69 445.892c9.487-6.328 15.263-17.521 15.263-29.575v-30.161l8.585-4.181h-43.9l-8.585 4.181v30.161c0 12.054-5.776 23.247-15.263 29.575l-21.257 14.18 4.414 4.06h43.9l-4.414-4.06z" fill="#407093"/><g><path d="m482.311 19.791h-452.622c-16.371 0-29.689 13.318-29.689 29.689v306.986c0 16.371 13.318 29.689 29.689 29.689h452.622c16.371 0 29.689-13.318 29.689-29.689v-306.986c0-16.371-13.318-29.689-29.689-29.689z" fill="#3f6d8e"/></g><path d="m33.652 356.467v-306.987c0-16.371 13.318-29.689 29.689-29.689h-33.652c-16.371 0-29.689 13.318-29.689 29.689v306.986c0 16.371 13.318 29.689 29.689 29.689h33.652c-16.37.001-29.689-13.317-29.689-29.688z" fill="#365e7d"/><path d="m475.212 85.8h-435.763l-7.312 4.336v259.611c0 2.36 1.912 4.272 4.272 4.272h31.056l5.722-6.296h182.813l6.728 6.296h212.863c2.359 0 4.272-1.912 4.272-4.272 0-134.752 0-123.787 0-259.611z" fill="#e4f6ff"/><path d="m78.531 347.722v-261.922h-39.082l-7.312 4.336v259.611c0 2.36 1.912 4.272 4.272 4.272h31.056l5.722-6.296h5.344z" fill="#d3effb"/><path d="m358.16 460.072h-204.32c-5.689 0-10.301 4.612-10.301 10.301v11.535c0 5.69 4.612 10.301 10.301 10.301h204.32c5.689 0 10.301-4.612 10.301-10.301v-11.535c0-5.69-4.612-10.301-10.301-10.301z" fill="#3f6d8e"/><path d="m187.439 481.908v-11.535c0-5.69 4.612-10.301 10.301-10.301h-43.9c-5.689 0-10.301 4.612-10.301 10.301v11.535c0 5.69 4.612 10.301 10.301 10.301h43.9c-5.689 0-10.301-4.612-10.301-10.301z" fill="#365e7d"/><path d="m78.531 51.928h-42.122c-2.359 0-4.272 1.912-4.272 4.272v33.936h46.394l1.867-1.502v-34.125z" fill="#dd636e"/><path d="m475.591 51.928h-397.06v38.208h401.332c0-17.883 0-30.34 0-33.936 0-2.36-1.913-4.272-4.272-4.272z" fill="#b1e4f9"/><g fill="#3f6d8e"><path d="m305.151 146.026h-10.501c-4.267 0-7.726-3.459-7.726-7.726s3.459-7.726 7.726-7.726h10.501c4.267 0 7.726 3.459 7.726 7.726s-3.459 7.726-7.726 7.726z"/><path d="m305.151 178.19h-10.501c-4.267 0-7.726-3.459-7.726-7.726s3.459-7.726 7.726-7.726h10.501c4.267 0 7.726 3.459 7.726 7.726s-3.459 7.726-7.726 7.726z"/><path d="m305.151 210.354h-10.501c-4.267 0-7.726-3.459-7.726-7.726s3.459-7.726 7.726-7.726h10.501c4.267 0 7.726 3.459 7.726 7.726s-3.459 7.726-7.726 7.726z"/><path d="m305.151 242.519h-10.501c-4.267 0-7.726-3.459-7.726-7.726 0-4.268 3.459-7.726 7.726-7.726h10.501c4.267 0 7.726 3.459 7.726 7.726s-3.459 7.726-7.726 7.726z"/><path d="m305.151 274.287h-10.501c-4.267 0-7.726-3.459-7.726-7.726s3.459-7.726 7.726-7.726h10.501c4.267 0 7.726 3.459 7.726 7.726s-3.459 7.726-7.726 7.726z"/><path d="m305.151 306.451h-10.501c-4.267 0-7.726-3.459-7.726-7.726s3.459-7.726 7.726-7.726h10.501c4.267 0 7.726 3.459 7.726 7.726s-3.459 7.726-7.726 7.726z"/></g><path d="m431.519 146.026h-97.036c-4.267 0-7.726-3.459-7.726-7.726s3.459-7.726 7.726-7.726h97.036c4.267 0 7.726 3.459 7.726 7.726s-3.459 7.726-7.726 7.726z" fill="#b1e4f9"/><path d="m431.519 178.19h-97.036c-4.267 0-7.726-3.459-7.726-7.726s3.459-7.726 7.726-7.726h97.036c4.267 0 7.726 3.459 7.726 7.726s-3.459 7.726-7.726 7.726z" fill="#b1e4f9"/><path d="m431.519 210.354h-97.036c-4.267 0-7.726-3.459-7.726-7.726s3.459-7.726 7.726-7.726h97.036c4.267 0 7.726 3.459 7.726 7.726s-3.459 7.726-7.726 7.726z" fill="#b1e4f9"/><path d="m431.519 242.519h-97.036c-4.267 0-7.726-3.459-7.726-7.726 0-4.268 3.459-7.726 7.726-7.726h97.036c4.267 0 7.726 3.459 7.726 7.726s-3.459 7.726-7.726 7.726z" fill="#b1e4f9"/><path d="m431.519 274.287h-97.036c-4.267 0-7.726-3.459-7.726-7.726s3.459-7.726 7.726-7.726h97.036c4.267 0 7.726 3.459 7.726 7.726s-3.459 7.726-7.726 7.726z" fill="#b1e4f9"/><path d="m431.519 306.451h-97.036c-4.267 0-7.726-3.459-7.726-7.726s3.459-7.726 7.726-7.726h97.036c4.267 0 7.726 3.459 7.726 7.726s-3.459 7.726-7.726 7.726z" fill="#b1e4f9"/><g><path d="m242.062 286.845c-1.981-.768-31.12-12.052-45.536-17.635-6.818 9.748-18.112 16.145-30.885 16.145-14.172 0-25.411-6.64-32.067-16.258l-45.443 17.748c-8.835 3.636-20.666 15.077-20.666 32.054v35.119h195.262v-35.119c.001-14.621-9.36-27.401-20.665-32.054z" fill="#dd636e"/></g><path d="m110.66 354.018v-35.339c0-4.268-3.459-7.726-7.726-7.726s-7.726 3.459-7.726 7.726v35.339z" fill="#da4a54"/><path d="m234.986 354.018v-35.339c0-4.268-3.459-7.726-7.726-7.726s-7.726 3.459-7.726 7.726v35.339z" fill="#da4a54"/><path d="m186.225 262.613-.004-14.172c-6.011 3.608-13.039 5.688-20.545 5.688-8.282 0-15.621-2.14-21.731-5.758v14.218c0 1.574-.757 2.502-1.628 3.093l-9.824 3.837c6.48 10.497 18.185 17.896 33.15 17.896 13.476 0 25.316-7.115 31.979-17.781-4.875-1.888-8.328-3.226-8.953-3.467-1.466-.567-2.439-1.976-2.444-3.554z" fill="#ffcebe"/><path d="m165.056 254.109c-8.026-.105-15.156-2.211-21.112-5.737v14.218c0 1.574-.757 2.502-1.628 3.093l-9.824 3.837c6.395 10.358 17.883 17.685 32.564 17.878z" fill="#ffb1a0"/><path d="m192.422 174.647c0-.737-.986-.99-1.333-.341-4.48 8.38-13.31 14.084-23.477 14.084h-43.143v27.751c0 20.931 16.4 40.048 41.207 40.048 22.083 0 40.048-17.966 40.048-40.048v-27.774c-7.355-.236-13.302-6.31-13.302-13.72z" fill="#ffdecf"/><g><path d="m146.009 216.142v-27.752h-21.54v27.751c0 20.931 16.4 40.048 41.207 40.048 3.597 0 7.082-.484 10.401-1.378-18.458-4.737-30.068-21.06-30.068-38.669z" fill="#ffcebe"/></g><path d="m200.877 141.876c-3.601.277-6.904-1.987-7.597-5.531-1.167-5.969-4.122-11.892-15.665-11.892h-40.049c-14.698 0-26.614 11.915-26.614 26.614v29.208c0 6.189 5.017 11.206 11.206 11.206h45.454c10.167 0 18.997-5.704 23.477-14.084.347-.65 1.333-.396 1.333.341 0 7.559 6.184 13.743 13.743 13.743 3.962 0 7.204-3.242 7.204-7.204v-30.48c0-7.181-6.265-12.4-12.492-11.921z" fill="#b06c6c"/><g><path d="m132.492 180.275v-29.208c0-14.698 11.915-26.614 26.614-26.614h-21.54c-14.698 0-26.614 11.915-26.614 26.614v29.208c0 6.189 5.017 11.206 11.206 11.206h21.54c-6.189 0-11.206-5.017-11.206-11.206z" fill="#9d5e5e"/></g><path d="m84.261 313.726c0-11.096 8.887-23.779 15.06-31.252l-11.191 4.371c-8.835 3.636-20.666 15.077-20.666 32.054v35.119h16.796c.001-12.429.001-30.063.001-40.292z" fill="#da4a54"/></g></svg>