<svg width="156" height="156" viewBox="0 0 156 156" fill="none" xmlns="http://www.w3.org/2000/svg">
<path d="M149.76 0H6.24C2.7885 0 0 2.7885 0 6.24V149.76C0 153.212 2.7885 156 6.24 156H149.76C153.212 156 156 153.212 156 149.76V6.24C156 2.7885 153.212 0 149.76 0ZM46.2735 132.932H23.127V58.4805H46.2735V132.932ZM34.71 48.3015C32.0566 48.3015 29.4627 47.5147 27.2565 46.0405C25.0502 44.5663 23.3307 42.471 22.3152 40.0196C21.2998 37.5681 21.0341 34.8706 21.5518 32.2682C22.0694 29.6657 23.3472 27.2752 25.2235 25.399C27.0997 23.5227 29.4902 22.2449 32.0927 21.7273C34.6951 21.2096 37.3926 21.4753 39.8441 22.4907C42.2955 23.5062 44.3908 25.2257 45.865 27.432C47.3392 29.6382 48.126 32.2321 48.126 34.8855C48.1065 42.2955 42.1005 48.3015 34.71 48.3015ZM132.932 132.932H109.804V96.72C109.804 88.0815 109.648 76.986 97.773 76.986C85.7415 76.986 83.889 86.385 83.889 96.096V132.932H60.7815V58.4805H82.9725V68.6595H83.2845C86.3655 62.8095 93.912 56.628 105.183 56.628C128.622 56.628 132.932 72.0525 132.932 92.0985V132.932Z" fill="white"/>
</svg>
