<svg width="96" height="159" viewBox="0 0 96 159" fill="none" xmlns="http://www.w3.org/2000/svg">
<g filter="url(#filter0_diii)">
<path d="M50.3555 11.729L82.7255 15.09L70.6648 78.2622L49.037 76.0166L50.3555 11.729ZM55.9964 114.96C51.222 114.464 47.4558 112.625 44.6977 109.443C41.9494 106.166 40.7935 102.426 41.2297 98.225C41.6758 93.9281 43.5705 90.5537 46.9136 88.1019C50.2567 85.65 54.3154 84.672 59.0897 85.1677C63.864 85.6634 67.5875 87.4495 70.26 90.526C73.0281 93.6124 74.189 97.304 73.7429 101.601C73.3067 105.802 71.4071 109.224 68.0442 111.867C64.6911 114.415 60.6752 115.445 55.9964 114.96Z" fill="#3C1A63"/>
</g>
<defs>
<filter id="filter0_diii" x="0.139648" y="0.729004" width="95.5854" height="157.347" filterUnits="userSpaceOnUse" color-interpolation-filters="sRGB">
<feFlood flood-opacity="0" result="BackgroundImageFix"/>
<feColorMatrix in="SourceAlpha" type="matrix" values="0 0 0 0 0 0 0 0 0 0 0 0 0 0 0 0 0 0 127 0"/>
<feOffset dx="-14" dy="16"/>
<feGaussianBlur stdDeviation="13.5"/>
<feColorMatrix type="matrix" values="0 0 0 0 0 0 0 0 0 0 0 0 0 0 0 0 0 0 0.25 0"/>
<feBlend mode="normal" in2="BackgroundImageFix" result="effect1_dropShadow"/>
<feBlend mode="normal" in="SourceGraphic" in2="effect1_dropShadow" result="shape"/>
<feColorMatrix in="SourceAlpha" type="matrix" values="0 0 0 0 0 0 0 0 0 0 0 0 0 0 0 0 0 0 127 0" result="hardAlpha"/>
<feOffset dx="-5" dy="5"/>
<feGaussianBlur stdDeviation="4"/>
<feComposite in2="hardAlpha" operator="arithmetic" k2="-1" k3="1"/>
<feColorMatrix type="matrix" values="0 0 0 0 0.174223 0 0 0 0 0.0754687 0 0 0 0 0.2875 0 0 0 1 0"/>
<feBlend mode="normal" in2="shape" result="effect2_innerShadow"/>
<feColorMatrix in="SourceAlpha" type="matrix" values="0 0 0 0 0 0 0 0 0 0 0 0 0 0 0 0 0 0 127 0" result="hardAlpha"/>
<feOffset dx="5" dy="-6"/>
<feGaussianBlur stdDeviation="5"/>
<feComposite in2="hardAlpha" operator="arithmetic" k2="-1" k3="1"/>
<feColorMatrix type="matrix" values="0 0 0 0 0.904167 0 0 0 0 0.877795 0 0 0 0 0.877795 0 0 0 0.37 0"/>
<feBlend mode="normal" in2="effect2_innerShadow" result="effect3_innerShadow"/>
<feColorMatrix in="SourceAlpha" type="matrix" values="0 0 0 0 0 0 0 0 0 0 0 0 0 0 0 0 0 0 127 0" result="hardAlpha"/>
<feOffset dx="-5" dy="6"/>
<feGaussianBlur stdDeviation="5"/>
<feComposite in2="hardAlpha" operator="arithmetic" k2="-1" k3="1"/>
<feColorMatrix type="matrix" values="0 0 0 0 0 0 0 0 0 0 0 0 0 0 0 0 0 0 0.25 0"/>
<feBlend mode="normal" in2="effect3_innerShadow" result="effect4_innerShadow"/>
</filter>
</defs>
</svg>
