<!DOCTYPE svg PUBLIC "-//W3C//DTD SVG 20010904//EN" "http://www.w3.org/TR/2001/REC-SVG-20010904/DTD/svg10.dtd">
<svg version="1.0" xmlns="http://www.w3.org/2000/svg" width="828px" height="315px" viewBox="0 0 8280 3150" preserveAspectRatio="xMidYMid meet">
<g id="layer101" fill="#233144" stroke="none">
<path d="M0 1575 l0 -1575 4140 0 4140 0 0 1575 0 1575 -4140 0 -4140 0 0 -1575z"/>
</g>
<g id="layer102" fill="#c22a2c" stroke="none">
<path d="M0 1575 l0 -1575 4140 0 4140 0 0 1575 0 1575 -4140 0 -4140 0 0 -1575z m3633 668 c4 -2 14 -17 22 -34 15 -29 15 -29 -13 -29 -15 0 -33 5 -39 11 -6 6 -23 9 -39 7 -29 -3 -29 -4 -29 -68 0 -59 2 -65 22 -68 12 -2 32 3 45 11 34 20 53 16 53 -13 0 -16 -9 -29 -25 -37 -27 -14 -88 -17 -115 -7 -28 11 -44 57 -42 126 3 94 33 122 117 110 19 -2 38 -7 43 -9z m400 4 c40 -14 53 -50 47 -129 -7 -96 -20 -108 -115 -108 l-75 0 1 120 c2 100 4 120 18 123 31 8 96 5 124 -6z m142 -59 c10 -37 21 -68 25 -68 4 0 10 14 14 32 18 91 26 108 51 108 14 0 25 -4 25 -10 0 -5 -14 -61 -32 -125 -30 -112 -32 -115 -59 -115 -25 0 -30 5 -39 43 -6 23 -13 49 -16 57 -11 28 -34 121 -34 133 0 7 11 13 24 13 20 0 25 -8 41 -68z m243 63 c115 -3 107 -151 -8 -151 -34 0 -41 -3 -38 -17 3 -14 13 -18 46 -18 39 0 42 -2 42 -27 0 -27 -2 -28 -50 -28 -68 0 -98 29 -91 90 3 27 48 59 79 55 35 -4 57 8 49 29 -5 12 -21 16 -72 16 l-65 0 0 29 c0 26 3 28 33 26 17 -2 51 -3 75 -4z m189 -91 l-1 -95 27 -3 c15 -2 27 -7 27 -12 0 -5 3 -15 6 -24 5 -14 -6 -16 -86 -16 -89 0 -91 1 -88 23 2 16 11 23 31 25 l27 3 0 93 c0 51 2 95 4 97 2 2 15 4 29 4 24 0 24 -1 24 -95z m119 90 c11 0 14 -23 14 -120 l0 -120 -30 0 -30 0 0 126 c0 111 2 125 16 120 9 -3 22 -6 30 -6z m197 -22 c9 -11 17 -26 17 -34 0 -17 -41 -19 -57 -3 -6 6 -23 9 -39 7 -29 -3 -29 -4 -29 -68 0 -60 2 -65 23 -68 13 -2 33 3 45 10 26 16 57 12 57 -7 0 -38 -92 -69 -145 -49 -29 11 -46 61 -44 125 3 73 20 99 75 109 49 9 74 4 97 -22z m-1071 5 c15 -13 18 -32 18 -104 0 -88 0 -89 -30 -104 -33 -17 -92 -20 -120 -5 -40 22 -51 170 -15 210 24 26 119 28 147 3z m433 -447 c11 -7 65 -37 120 -66 55 -30 127 -69 160 -87 33 -18 80 -43 105 -56 25 -12 65 -34 90 -48 25 -15 80 -45 124 -68 127 -68 116 -53 116 -163 0 -54 -4 -98 -9 -98 -5 0 -119 -60 -253 -133 -133 -73 -292 -160 -353 -191 -60 -32 -116 -63 -123 -69 -10 -8 -12 6 -10 74 3 83 3 84 27 81 39 -6 132 8 125 19 -3 5 -16 7 -30 5 -13 -3 -24 -3 -24 -1 0 7 30 59 37 64 5 3 30 34 56 68 27 35 56 67 66 73 36 19 107 38 166 45 78 8 173 33 207 53 25 14 26 17 10 28 -22 15 -177 54 -217 54 -17 0 -56 9 -88 20 -31 11 -71 23 -89 26 -18 3 -60 11 -93 19 -53 11 -56 13 -25 15 84 5 85 7 24 90 l-54 75 30 3 c62 7 27 22 -50 22 l-80 0 0 80 c0 44 3 80 8 80 4 0 16 -6 27 -14z"/>
</g>
<g id="layer103" fill="#3d649b" stroke="none">
<path d="M200 1565 l0 -1105 3925 0 3925 0 0 1105 0 1105 -3925 0 -3925 0 0 -1105z m3433 678 c4 -2 14 -17 22 -34 15 -29 15 -29 -13 -29 -15 0 -33 5 -39 11 -6 6 -23 9 -39 7 -29 -3 -29 -4 -29 -68 0 -59 2 -65 22 -68 12 -2 32 3 45 11 34 20 53 16 53 -13 0 -16 -9 -29 -25 -37 -27 -14 -88 -17 -115 -7 -28 11 -44 57 -42 126 3 94 33 122 117 110 19 -2 38 -7 43 -9z m400 4 c40 -14 53 -50 47 -129 -7 -96 -20 -108 -115 -108 l-75 0 1 120 c2 100 4 120 18 123 31 8 96 5 124 -6z m142 -59 c10 -37 21 -68 25 -68 4 0 10 14 14 32 18 91 26 108 51 108 14 0 25 -4 25 -10 0 -5 -14 -61 -32 -125 -30 -112 -32 -115 -59 -115 -25 0 -30 5 -39 43 -6 23 -13 49 -16 57 -11 28 -34 121 -34 133 0 7 11 13 24 13 20 0 25 -8 41 -68z m243 63 c115 -3 107 -151 -8 -151 -34 0 -41 -3 -38 -17 3 -14 13 -18 46 -18 39 0 42 -2 42 -27 0 -27 -2 -28 -50 -28 -68 0 -98 29 -91 90 3 27 48 59 79 55 35 -4 57 8 49 29 -5 12 -21 16 -72 16 l-65 0 0 29 c0 26 3 28 33 26 17 -2 51 -3 75 -4z m189 -91 l-1 -95 27 -3 c15 -2 27 -7 27 -12 0 -5 3 -15 6 -24 5 -14 -6 -16 -86 -16 -89 0 -91 1 -88 23 2 16 11 23 31 25 l27 3 0 93 c0 51 2 95 4 97 2 2 15 4 29 4 24 0 24 -1 24 -95z m119 90 c11 0 14 -23 14 -120 l0 -120 -30 0 -30 0 0 126 c0 111 2 125 16 120 9 -3 22 -6 30 -6z m197 -22 c9 -11 17 -26 17 -34 0 -17 -41 -19 -57 -3 -6 6 -23 9 -39 7 -29 -3 -29 -4 -29 -68 0 -60 2 -65 23 -68 13 -2 33 3 45 10 26 16 57 12 57 -7 0 -38 -92 -69 -145 -49 -29 11 -46 61 -44 125 3 73 20 99 75 109 49 9 74 4 97 -22z m-1071 5 c15 -13 18 -32 18 -104 0 -88 0 -89 -30 -104 -33 -17 -92 -20 -120 -5 -40 22 -51 170 -15 210 24 26 119 28 147 3z m433 -447 c11 -7 65 -37 120 -66 55 -30 127 -69 160 -87 33 -18 80 -43 105 -56 25 -12 65 -34 90 -48 25 -15 80 -45 124 -68 127 -68 116 -53 116 -163 0 -54 -4 -98 -9 -98 -5 0 -119 -60 -253 -133 -133 -73 -292 -160 -353 -191 -60 -32 -116 -63 -123 -69 -10 -8 -12 6 -10 74 3 83 3 84 27 81 39 -6 132 8 125 19 -3 5 -16 7 -30 5 -13 -3 -24 -3 -24 -1 0 7 30 59 37 64 5 3 30 34 56 68 27 35 56 67 66 73 34 17 105 38 156 45 126 17 177 29 217 53 25 14 26 17 10 28 -22 15 -177 54 -217 54 -17 0 -56 9 -88 20 -31 11 -71 23 -89 26 -18 3 -60 11 -93 19 -53 11 -56 13 -25 15 84 5 85 7 24 90 l-54 75 30 3 c62 7 27 22 -50 22 l-80 0 0 80 c0 44 3 80 8 80 4 0 16 -6 27 -14z m484 -463 c31 -12 33 -15 19 -29 -17 -17 -77 -33 -125 -34 -26 0 -34 5 -39 24 -3 13 -1 33 5 45 10 18 18 20 59 14 26 -3 62 -12 81 -20z"/>
<path d="M3950 2131 c0 -71 0 -71 28 -71 46 0 53 11 50 76 l-3 59 -37 3 -38 3 0 -70z"/>
<path d="M3747 2194 c-4 -4 -7 -33 -7 -65 0 -49 3 -59 20 -64 11 -3 29 -3 40 0 19 6 21 14 18 68 -3 61 -4 62 -33 65 -17 2 -34 0 -38 -4z"/>
</g>
<g id="layer104" fill="#ffffff" stroke="none">
<path d="M0 1575 l0 -1575 4140 0 4140 0 0 1575 0 1575 -4140 0 -4140 0 0 -1575z m8100 -10 l0 -1155 -3975 0 -3975 0 0 1155 0 1155 3975 0 3975 0 0 -1155z"/>
<path d="M200 1565 l0 -1105 3925 0 3925 0 0 1105 0 1105 -3925 0 -3925 0 0 -1105z m3440 670 c10 -9 20 -25 23 -37 5 -18 2 -19 -31 -14 -20 4 -50 8 -67 9 l-30 2 -3 -62 -3 -63 34 0 c18 0 38 5 44 11 6 6 21 9 34 7 18 -2 23 -8 21 -23 -9 -57 -120 -78 -167 -30 -21 21 -25 33 -25 89 0 77 13 112 49 125 35 14 98 6 121 -14z m207 1 c26 -23 28 -29 28 -106 0 -74 -2 -84 -24 -101 -36 -29 -115 -26 -146 6 -21 21 -25 33 -25 89 0 103 24 134 102 135 25 1 46 -7 65 -23z m214 -3 c39 -38 38 -164 -2 -204 -15 -15 -33 -19 -94 -19 l-75 0 0 126 0 126 75 -4 c60 -3 79 -8 96 -25z m108 -10 c5 -21 13 -51 17 -66 9 -37 19 -24 36 43 12 48 18 55 41 58 17 2 27 -1 27 -10 0 -11 -40 -168 -56 -221 -4 -13 -14 -17 -37 -15 -30 3 -31 4 -62 120 -18 65 -30 120 -27 123 3 3 16 5 28 5 18 0 25 -8 33 -37z m309 14 c26 -24 32 -58 16 -96 -13 -30 -28 -38 -88 -43 -50 -5 -42 -27 11 -30 44 -3 48 -5 51 -30 3 -28 3 -28 -57 -28 -52 0 -62 3 -80 26 -24 30 -26 43 -10 77 13 29 48 47 88 47 33 0 42 7 34 26 -4 10 -23 14 -69 14 l-64 0 0 31 0 31 74 -4 c53 -2 80 -8 94 -21z m132 -71 l0 -95 28 -3 c21 -2 28 -9 30 -30 l3 -28 -90 0 -91 0 0 30 c0 27 3 30 30 30 l30 0 0 95 0 95 30 0 30 0 0 -94z m130 -31 l0 -125 -30 0 -30 0 0 125 0 125 30 0 30 0 0 -125z m175 100 c35 -34 32 -55 -5 -55 -16 0 -30 5 -30 11 0 6 -14 9 -32 7 -33 -3 -33 -3 -36 -65 l-3 -63 35 0 c19 0 38 5 41 10 3 6 17 10 31 10 17 0 24 -5 24 -20 0 -60 -116 -85 -165 -35 -21 21 -25 33 -25 89 0 103 24 134 103 135 28 1 45 -6 62 -24z m-775 -542 l0 -108 -218 -114 c-119 -63 -239 -126 -266 -141 l-49 -28 104 -55 c57 -30 176 -93 264 -139 l160 -85 3 -112 3 -112 -98 53 c-54 29 -223 121 -376 203 l-277 150 0 96 0 96 338 183 c185 101 351 191 367 201 17 10 33 19 38 19 4 0 7 -48 7 -107z m219 55 c150 -80 221 -119 436 -236 l200 -109 3 -99 2 -99 -202 -109 c-112 -61 -237 -128 -278 -151 -41 -23 -119 -65 -172 -94 l-98 -52 0 85 0 86 78 1 c49 0 70 3 57 8 -11 5 -23 7 -27 4 -24 -14 1 31 62 111 63 83 74 93 127 112 32 12 103 29 158 37 105 16 205 51 189 66 -15 15 -135 48 -199 55 -33 4 -85 16 -116 26 -31 11 -99 27 -150 37 l-94 18 62 9 62 9 -60 78 c-57 75 -59 79 -35 79 14 0 28 5 31 10 4 6 -22 10 -69 10 l-76 0 0 80 c0 44 3 80 7 80 3 0 49 -23 102 -52z m410 -425 c31 -12 33 -15 19 -29 -17 -17 -77 -33 -125 -34 -26 0 -34 5 -39 24 -3 13 -1 33 5 45 10 18 18 20 59 14 26 -3 62 -12 81 -20z"/>
<path d="M3747 2193 c-4 -3 -7 -33 -7 -65 l0 -59 38 3 c35 3 37 5 40 42 5 64 -4 86 -37 86 -15 0 -31 -3 -34 -7z"/>
<path d="M3950 2135 l0 -66 38 3 37 3 0 60 0 60 -37 3 -38 3 0 -66z"/>
</g>


</svg>