<svg width="1438" height="821" viewBox="0 0 1438 821" fill="none" xmlns="http://www.w3.org/2000/svg">
<g filter="url(#filter0_b)">
<mask id="mask0" mask-type="alpha" maskUnits="userSpaceOnUse" x="0" y="0" width="1443" height="821">
<rect width="1442.33" height="821" fill="#C4C4C4"/>
</mask>
<g mask="url(#mask0)">
<path d="M1083.41 663.101C1053.35 692.642 1075.75 778.707 939.512 797.258C827.793 807.99 774.536 751.418 654.695 794.162C654.695 794.162 570.306 829.614 399.149 802.1C198.809 769.895 -137.976 632.392 60.4322 579.408C315.53 511.285 4.71219 416.589 -115.455 462.31C-224.659 503.859 -279.46 551.462 -289.182 389.23C-291.375 352.623 -259.682 325.867 -142.886 271.566C39.5283 186.757 -44.0516 161.601 -112.857 170.243C-195.547 180.628 -193.87 162.534 -221.456 169.071C-364.285 202.917 -210.445 69.8644 -190.309 42.0812C-162.46 3.65512 -118.423 -31.2444 -61.2423 -61.6253C49.435 -120.429 209.355 -162.305 396.447 -180.059C504.876 -190.348 622.432 -192.535 744.817 -185.22C840.447 -179.504 932.387 -168.383 1018.69 -152.764C1132.07 -132.244 1235.72 -103.962 1325.23 -69.972C1445.74 -24.2106 1636.99 69.8955 1629.49 183.189C1624.74 254.865 1945.16 354.595 1941.73 406.288C1938.31 457.98 1665.75 367.924 1614.48 409.777C1684.3 492.874 1479.05 450.681 1409.39 476.605C1314.81 511.81 1518.91 591.185 1388.51 605.185C1273.47 617.537 1192.52 555.881 1083.41 663.101Z" fill="url(#paint0_linear)"/>
</g>
<mask id="mask1" mask-type="alpha" maskUnits="userSpaceOnUse" x="0" y="0" width="1443" height="813">
<path fill-rule="evenodd" clip-rule="evenodd" d="M1065.73 698.885C1070.61 684.31 1074.92 671.449 1083.41 663.102C1158.6 589.216 1220.41 595.523 1289.23 602.545C1320.28 605.713 1352.75 609.026 1388.51 605.186C1455.79 597.963 1434.03 573.339 1410.18 546.358C1387.81 521.041 1363.6 493.647 1409.39 476.605C1418.4 473.253 1429.67 471.04 1442.33 469.547V0H0V451.858C125.689 462.767 251.045 528.506 60.4322 579.408C-137.976 632.393 198.809 769.895 399.149 802.101C570.306 829.615 654.695 794.162 654.695 794.162C725.159 769.03 772.604 778.233 822.448 787.902C857.376 794.677 893.482 801.681 939.512 797.259C1037.25 783.95 1053.34 735.891 1065.73 698.885Z" fill="url(#paint1_linear)"/>
</mask>
<g mask="url(#mask1)">
<path opacity="0.5" d="M448.755 148.47C307.43 153.058 373.68 248.854 371.011 277.938C365.014 325.598 324.639 331.38 245.276 402.828C165.912 474.278 266.139 528.479 460.071 523.309C654.001 518.141 594.864 531.242 744.939 646.168C895.014 761.096 1048.25 669.708 1011.48 536.539C974.717 403.37 1060.67 381.978 1012.72 258.898C964.77 135.819 959.993 158.023 770.351 192.127C580.71 226.232 590.08 143.881 448.755 148.47Z" stroke="url(#paint2_linear)" stroke-width="4"/>
<path opacity="0.5" d="M358.284 58.3704C146.646 65.2117 245.857 208.041 241.861 251.403C232.88 322.463 172.417 331.083 53.5679 437.611C-65.2822 544.14 84.8118 624.952 375.23 617.244C665.647 609.538 577.087 629.072 801.829 800.424C1026.57 971.777 1256.05 835.521 1200.99 636.97C1145.93 438.419 1274.64 406.524 1202.84 223.016C1131.03 39.5086 1123.88 72.6135 839.884 123.462C555.891 174.312 569.923 51.5291 358.284 58.3704Z" stroke="url(#paint3_linear)" stroke-width="4"/>
<path opacity="0.5" d="M282.116 -52.1272C-1.75397 -42.8598 131.317 150.62 125.958 209.36C113.912 305.619 32.8129 317.297 -126.6 461.602C-286.014 605.909 -84.6926 715.379 304.846 704.938C694.383 694.499 575.598 720.96 877.045 953.077C1178.49 1185.2 1486.29 1000.62 1412.44 731.658C1338.59 462.696 1511.23 419.491 1414.92 170.906C1318.61 -77.6779 1309.01 -32.8331 928.088 36.048C547.167 104.93 565.988 -61.3946 282.116 -52.1272Z" stroke="url(#paint4_linear)" stroke-width="4"/>
</g>
</g>
<defs>
<filter id="filter0_b" x="-250" y="-250" width="1942.33" height="1312.56" filterUnits="userSpaceOnUse" color-interpolation-filters="sRGB">
<feFlood flood-opacity="0" result="BackgroundImageFix"/>
<feGaussianBlur in="BackgroundImage" stdDeviation="125"/>
<feComposite in2="SourceAlpha" operator="in" result="effect1_backgroundBlur"/>
<feBlend mode="normal" in="SourceGraphic" in2="effect1_backgroundBlur" result="shape"/>
</filter>
<linearGradient id="paint0_linear" x1="2083.39" y1="-143.205" x2="-333.213" y2="-344.315" gradientUnits="userSpaceOnUse">
<stop stop-color="#2A0845"/>
<stop offset="1" stop-color="#6441A5"/>
</linearGradient>
<linearGradient id="paint1_linear" x1="2083.39" y1="-143.205" x2="-333.212" y2="-344.315" gradientUnits="userSpaceOnUse">
<stop stop-color="#2A0845"/>
<stop offset="1" stop-color="#6441A5"/>
</linearGradient>
<linearGradient id="paint2_linear" x1="665.475" y1="134.287" x2="604.09" y2="667.528" gradientUnits="userSpaceOnUse">
<stop stop-color="#5B3896"/>
<stop offset="1" stop-color="#3A175F"/>
</linearGradient>
<linearGradient id="paint3_linear" x1="682.83" y1="37.2244" x2="591.697" y2="832.361" gradientUnits="userSpaceOnUse">
<stop stop-color="#5B3896"/>
<stop offset="1" stop-color="#3A175F"/>
</linearGradient>
<linearGradient id="paint4_linear" x1="717.43" y1="-80.7721" x2="592.786" y2="996.061" gradientUnits="userSpaceOnUse">
<stop stop-color="#5B3896"/>
<stop offset="1" stop-color="#3A175F"/>
</linearGradient>
</defs>
</svg>
